999
dxfrw 0.6.3
  0
SECTION
  2
HEADER
  9
$ACADVER
  1
AC1021
  9
$DWGCODEPAGE
  3
ANSI_1252
  9
$INSBASE
 10
0
 20
0
 30
0
  9
$EXTMIN
 10
369.75
 20
-781.0710678118655
 30
0
  9
$EXTMAX
 10
8183.071067811866
 20
6982.25
 30
0
  9
$LIMMIN
 10
0
 20
0
  9
$LIMMAX
 10
420
 20
297
  9
$ORTHOMODE
 70
    0
  9
$REGENMODE
 70
    1
  9
$FILLMODE
 70
    1
  9
$QTEXTMODE
 70
    0
  9
$MIRRTEXT
 70
    0
  9
$LTSCALE
 40
1
  9
$ATTMODE
 70
    0
  9
$TEXTSIZE
 40
2.5
  9
$TRACEWID
 40
15.68
  9
$TEXTSTYLE
  7
STANDARD
  9
$CLAYER
  8
0
  9
$CELTYPE
  6
BYLAYER
  9
$CECOLOR
 62
  256
  9
$CELTSCALE
 40
1
  9
$DISPSILH
 70
    0
  9
$DIMSCALE
 40
2.5
  9
$DIMASZ
 40
0.1
  9
$DIMEXO
 40
0.025
  9
$DIMDLI
 40
3.75
  9
$DIMRND
 40
0
  9
$DIMDLE
 40
0
  9
$DIMEXE
 40
0.05
  9
$DIMTP
 40
0
  9
$DIMTM
 40
0
  9
$DIMTXT
 40
5
  9
$DIMCEN
 40
2.5
  9
$DIMTSZ
 40
4
  9
$DIMTOL
 70
    0
  9
$DIMLIM
 70
    0
  9
$DIMTIH
 70
    0
  9
$DIMTOH
 70
    0
  9
$DIMSE1
 70
    0
  9
$DIMSE2
 70
    0
  9
$DIMTAD
 70
    1
  9
$DIMZIN
 70
    8
  9
$DIMBLK
  1

  9
$DIMASO
 70
    1
  9
$DIMSHO
 70
    1
  9
$DIMPOST
  1

  9
$DIMAPOST
  1

  9
$DIMALT
 70
    0
  9
$DIMALTD
 70
    3
  9
$DIMALTF
 40
0.03937
  9
$DIMLFAC
 40
1
  9
$DIMTOFL
 70
    1
  9
$DIMTVP
 40
0
  9
$DIMTIX
 70
    0
  9
$DIMSOXD
 70
    0
  9
$DIMSAH
 70
    0
  9
$DIMBLK1
  1

  9
$DIMBLK2
  1

  9
$DIMSTYLE
  2
STANDARD
  9
$DIMCLRD
 70
    0
  9
$DIMCLRE
 70
    0
  9
$DIMCLRT
 70
    0
  9
$DIMTFAC
 40
1
  9
$DIMGAP
 40
0.025
  9
$DIMJUST
 70
    0
  9
$DIMSD1
 70
    0
  9
$DIMSD2
 70
    0
  9
$DIMTOLJ
 70
    0
  9
$DIMTZIN
 70
    8
  9
$DIMALTZ
 70
    0
  9
$DIMALTTZ
 70
    0
  9
$DIMUPT
 70
    0
  9
$DIMDEC
 70
    2
  9
$DIMTDEC
 70
    2
  9
$DIMALTU
 70
    2
  9
$DIMALTTD
 70
    3
  9
$DIMTXSTY
  7
standard
  9
$DIMAUNIT
 70
    0
  9
$DIMADEC
 70
    0
  9
$DIMALTRND
 40
0
  9
$DIMAZIN
 70
    0
  9
$DIMDSEP
 70
   44
  9
$DIMATFIT
 70
    3
  9
$DIMFRAC
 70
    0
  9
$DIMLDRBLK
  1
STANDARD
  9
$DIMLUNIT
 70
    4
  9
$DIMLWD
 70
   -2
  9
$DIMLWE
 70
   -2
  9
$DIMTMOVE
 70
    0
  9
$DIMFXL
 40
1
  9
$DIMFXLON
 70
    0
  9
$DIMJOGANG
 40
0.7854
  9
$DIMTFILL
 70
    0
  9
$DIMTFILLCLR
 70
    0
  9
$DIMARCSYM
 70
    0
  9
$DIMLTYPE
  6

  9
$DIMLTEX1
  6

  9
$DIMLTEX2
  6

  9
$LUNITS
 70
    3
  9
$LUPREC
 70
    4
  9
$SKETCHINC
 40
1
  9
$FILLETRAD
 40
0
  9
$AUNITS
 70
    1
  9
$AUPREC
 70
    2
  9
$MENU
  1
.
  9
$ELEVATION
 40
0
  9
$PELEVATION
 40
0
  9
$THICKNESS
 40
0
  9
$LIMCHECK
 70
    0
  9
$CHAMFERA
 40
0
  9
$CHAMFERB
 40
0
  9
$CHAMFERC
 40
0
  9
$CHAMFERD
 40
0
  9
$SKPOLY
 70
    0
  9
$USRTIMER
 70
    1
  9
$ANGBASE
 50
0
  9
$ANGDIR
 70
    0
  9
$PDMODE
 70
   96
  9
$PDSIZE
 40
-2
  9
$PLINEWID
 40
0
  9
$SPLFRAME
 70
    0
  9
$SPLINETYPE
 70
    2
  9
$SPLINESEGS
 70
    8
  9
$HANDSEED
  5
20000
  9
$SURFTAB1
 70
    6
  9
$SURFTAB2
 70
    6
  9
$SURFTYPE
 70
    6
  9
$SURFU
 70
    6
  9
$SURFV
 70
    6
  9
$UCSBASE
  2

  9
$UCSNAME
  2

  9
$UCSORG
 10
0
 20
0
 30
0
  9
$UCSXDIR
 10
1
 20
0
 30
0
  9
$UCSYDIR
 10
0
 20
1
 30
0
  9
$UCSORTHOREF
  2

  9
$UCSORTHOVIEW
 70
    0
  9
$UCSORGTOP
 10
0
 20
0
 30
0
  9
$UCSORGBOTTOM
 10
0
 20
0
 30
0
  9
$UCSORGLEFT
 10
0
 20
0
 30
0
  9
$UCSORGRIGHT
 10
0
 20
0
 30
0
  9
$UCSORGFRONT
 10
0
 20
0
 30
0
  9
$UCSORGBACK
 10
0
 20
0
 30
0
  9
$PUCSBASE
  2

  9
$PUCSNAME
  2

  9
$PUCSORG
 10
0
 20
0
 30
0
  9
$PUCSXDIR
 10
1
 20
0
 30
0
  9
$PUCSYDIR
 10
0
 20
1
 30
0
  9
$PUCSORTHOREF
  2

  9
$PUCSORTHOVIEW
 70
    0
  9
$PUCSORGTOP
 10
0
 20
0
 30
0
  9
$PUCSORGBOTTOM
 10
0
 20
0
 30
0
  9
$PUCSORGLEFT
 10
0
 20
0
 30
0
  9
$PUCSORGRIGHT
 10
0
 20
0
 30
0
  9
$PUCSORGFRONT
 10
0
 20
0
 30
0
  9
$PUCSORGBACK
 10
0
 20
0
 30
0
  9
$USERI1
 70
    0
  9
$USERI2
 70
    0
  9
$USERI3
 70
    0
  9
$USERI4
 70
    0
  9
$USERI5
 70
    0
  9
$USERR1
 40
0
  9
$USERR2
 40
0
  9
$USERR3
 40
0
  9
$USERR4
 40
0
  9
$USERR5
 40
0
  9
$WORLDVIEW
 70
    1
  9
$SHADEDGE
 70
    3
  9
$SHADEDIF
 70
   70
  9
$TILEMODE
 70
    1
  9
$MAXACTVP
 70
   64
  9
$PINSBASE
 10
-0.4024320364377389
 20
2.117476807787773
 30
0
  9
$PLIMCHECK
 70
    0
  9
$PEXTMIN
 10
0
 20
0
 30
0
  9
$PEXTMAX
 10
0
 20
0
 30
0
  9
$GRIDMODE
 70
    1
  9
$SNAPSTYLE
 70
    0
  9
$GRIDUNIT
 10
0
 20
0
  9
$PLIMMIN
 10
0
 20
0
  9
$PLIMMAX
 10
8.503937007874017
 20
10.98425196850394
  9
$UNITMODE
 70
    0
  9
$VISRETAIN
 70
    1
  9
$PLINEGEN
 70
    0
  9
$PSLTSCALE
 70
    1
  9
$TREEDEPTH
 70
 3020
  9
$CMLSTYLE
  2
Standard
  9
$CMLJUST
 70
    0
  9
$CMLSCALE
 40
20
  9
$PROXYGRAPHICS
 70
    1
  9
$MEASUREMENT
 70
    0
  9
$CELWEIGHT
370
   -1
  9
$ENDCAPS
280
    0
  9
$JOINSTYLE
280
    0
  9
$LWDISPLAY
290
    0
  9
$INSUNITS
 70
    1
  9
$HYPERLINKBASE
  1

  9
$STYLESHEET
  1

  9
$XEDIT
290
    1
  9
$CEPSNTYPE
380
    0
  9
$PSTYLEMODE
290
    1
  9
$EXTNAMES
290
    1
  9
$PSVPSCALE
 40
0.001088389550879618
  9
$OLESTARTUP
290
    0
  9
$SORTENTS
280
  127
  9
$INDEXCTL
280
    0
  9
$HIDETEXT
280
    1
  9
$XCLIPFRAME
290
    0
  9
$HALOGAP
280
    0
  9
$OBSCOLOR
 70
  257
  9
$OBSLTYPE
280
    0
  9
$INTERSECTIONDISPLAY
280
    0
  9
$INTERSECTIONCOLOR
 70
  257
  9
$DIMASSOC
280
    1
  9
$PROJECTNAME
  1

  9
$CAMERADISPLAY
290
    0
  9
$LENSLENGTH
 40
50
  9
$CAMERAHEIGHT
 40
0
  9
$STEPSPERSEC
 40
2
  9
$STEPSIZE
 40
50
  9
$3DDWFPREC
 40
2
  9
$PSOLWIDTH
 40
5
  9
$PSOLHEIGHT
 40
80
  9
$LOFTANG1
 40
1.570796326794897
  9
$LOFTANG2
 40
1.570796326794897
  9
$LOFTMAG1
 40
0
  9
$LOFTMAG2
 40
0
  9
$LOFTPARAM
 70
    7
  9
$LOFTNORMALS
280
    1
  9
$LATITUDE
 40
1
  9
$LONGITUDE
 40
1
  9
$NORTHDIRECTION
 40
0
  9
$TIMEZONE
 70
-8000
  9
$LIGHTGLYPHDISPLAY
280
    1
  9
$TILEMODELIGHTSYNCH
280
    1
  9
$SOLIDHIST
280
    1
  9
$SHOWHIST
280
    1
  9
$DWFFRAME
280
    2
  9
$DGNFRAME
280
    0
  9
$REALWORLDSCALE
290
    1
  9
$INTERFERECOLOR
 62
    1
  9
$CSHADOW
280
    0
  9
$SHADOWPLANELOCATION
 40
0
  0
ENDSEC
  0
SECTION
  2
CLASSES
  0
ENDSEC
  0
SECTION
  2
TABLES
  0
TABLE
  2
VPORT
  5
8
330
0
100
AcDbSymbolTable
 70
    1
  0
VPORT
  5
31
330
2
100
AcDbSymbolTableRecord
100
AcDbViewportTableRecord
  2
*ACTIVE
 70
    0
 10
0
 20
0
 11
1
 21
1
 12
6389.071363943329
 22
4141.926597020492
 13
0
 23
0
 14
10
 24
10
 15
10
 25
10
 16
0
 26
0
 36
1
 17
0
 27
0
 37
0
 40
10358.14067120053
 41
1.639281129653402
 42
50
 43
0
 44
0
 50
0
 51
0
 71
    0
 72
  100
 73
    1
 74
    3
 75
    0
 76
    1
 77
    0
 78
    0
281
    0
 65
    1
110
0
120
0
130
0
111
1
121
0
131
0
112
0
122
1
132
0
 79
    0
146
0
348
10020
 60
    7
 61
    5
292
1
282
    1
141
0
142
0
 63
  250
421
3358443
  0
ENDTAB
  0
TABLE
  2
LTYPE
  5
5
330
0
100
AcDbSymbolTable
 70
    4
  0
LTYPE
  5
14
330
5
100
AcDbSymbolTableRecord
100
AcDbLinetypeTableRecord
  2
ByBlock
 70
    0
  3

 72
   65
 73
    0
 40
0
  0
LTYPE
  5
15
330
5
100
AcDbSymbolTableRecord
100
AcDbLinetypeTableRecord
  2
ByLayer
 70
    0
  3

 72
   65
 73
    0
 40
0
  0
LTYPE
  5
16
330
5
100
AcDbSymbolTableRecord
100
AcDbLinetypeTableRecord
  2
Continuous
 70
    0
  3
Solid line
 72
   65
 73
    0
 40
0
  0
LTYPE
  5
32
330
5
100
AcDbSymbolTableRecord
100
AcDbLinetypeTableRecord
  2
DOT
 70
    0
  3
Dot . . . . . . . . . . . . . . . . . . . . . .
 72
   65
 73
    2
 40
6.35
 49
0
 74
    0
 49
-6.35
 74
    0
  0
LTYPE
  5
33
330
5
100
AcDbSymbolTableRecord
100
AcDbLinetypeTableRecord
  2
DOTTINY
 70
    0
  3
Dot (.15x) .....................................
 72
   65
 73
    2
 40
0.9525
 49
0
 74
    0
 49
-0.9525
 74
    0
  0
LTYPE
  5
34
330
5
100
AcDbSymbolTableRecord
100
AcDbLinetypeTableRecord
  2
DOT2
 70
    0
  3
Dot (.5x) .....................................
 72
   65
 73
    2
 40
3.175
 49
0
 74
    0
 49
-3.175
 74
    0
  0
LTYPE
  5
35
330
5
100
AcDbSymbolTableRecord
100
AcDbLinetypeTableRecord
  2
DOTX2
 70
    0
  3
Dot (2x) .  .  .  .  .  .  .  .  .  .  .  .  .
 72
   65
 73
    2
 40
12.7
 49
0
 74
    0
 49
-12.7
 74
    0
  0
LTYPE
  5
36
330
5
100
AcDbSymbolTableRecord
100
AcDbLinetypeTableRecord
  2
DASHED
 70
    0
  3
Dashed _ _ _ _ _ _ _ _ _ _ _ _ _ _ _ _ _
 72
   65
 73
    2
 40
19.05
 49
12.7
 74
    0
 49
-6.35
 74
    0
  0
LTYPE
  5
37
330
5
100
AcDbSymbolTableRecord
100
AcDbLinetypeTableRecord
  2
DASHEDTINY
 70
    0
  3
Dashed (.15x) _ _ _ _ _ _ _ _ _ _ _ _ _ _ _ _ _
 72
   65
 73
    2
 40
2.8575
 49
1.905
 74
    0
 49
-0.9525
 74
    0
  0
LTYPE
  5
38
330
5
100
AcDbSymbolTableRecord
100
AcDbLinetypeTableRecord
  2
DASHED2
 70
    0
  3
Dashed (.5x) _ _ _ _ _ _ _ _ _ _ _ _ _ _ _ _ _
 72
   65
 73
    2
 40
9.524999999999999
 49
6.35
 74
    0
 49
-3.175
 74
    0
  0
LTYPE
  5
39
330
5
100
AcDbSymbolTableRecord
100
AcDbLinetypeTableRecord
  2
DASHEDX2
 70
    0
  3
Dashed (2x) ____  ____  ____  ____  ____  ___
 72
   65
 73
    2
 40
38.09999999999999
 49
25.4
 74
    0
 49
-12.7
 74
    0
  0
LTYPE
  5
3A
330
5
100
AcDbSymbolTableRecord
100
AcDbLinetypeTableRecord
  2
DASHDOT
 70
    0
  3
Dash dot __ . __ . __ . __ . __ . __ . __ . __
 72
   65
 73
    4
 40
25.4
 49
12.7
 74
    0
 49
-6.35
 74
    0
 49
0
 74
    0
 49
-6.35
 74
    0
  0
LTYPE
  5
3B
330
5
100
AcDbSymbolTableRecord
100
AcDbLinetypeTableRecord
  2
DASHDOTTINY
 70
    0
  3
Dash dot (.15x) _._._._._._._._._._._._._._._.
 72
   65
 73
    4
 40
3.81
 49
1.905
 74
    0
 49
-0.9525
 74
    0
 49
0
 74
    0
 49
-0.9525
 74
    0
  0
LTYPE
  5
3C
330
5
100
AcDbSymbolTableRecord
100
AcDbLinetypeTableRecord
  2
DASHDOT2
 70
    0
  3
Dash dot (.5x) _._._._._._._._._._._._._._._.
 72
   65
 73
    4
 40
12.7
 49
6.35
 74
    0
 49
-3.175
 74
    0
 49
0
 74
    0
 49
-3.175
 74
    0
  0
LTYPE
  5
3D
330
5
100
AcDbSymbolTableRecord
100
AcDbLinetypeTableRecord
  2
DASHDOTX2
 70
    0
  3
Dash dot (2x) ____  .  ____  .  ____  .  ___
 72
   65
 73
    4
 40
50.8
 49
25.4
 74
    0
 49
-12.7
 74
    0
 49
0
 74
    0
 49
-12.7
 74
    0
  0
LTYPE
  5
3E
330
5
100
AcDbSymbolTableRecord
100
AcDbLinetypeTableRecord
  2
DIVIDE
 70
    0
  3
Divide ____ . . ____ . . ____ . . ____ . . ____
 72
   65
 73
    6
 40
31.75
 49
12.7
 74
    0
 49
-6.35
 74
    0
 49
0
 74
    0
 49
-6.35
 74
    0
 49
0
 74
    0
 49
-6.35
 74
    0
  0
LTYPE
  5
3F
330
5
100
AcDbSymbolTableRecord
100
AcDbLinetypeTableRecord
  2
DIVIDETINY
 70
    0
  3
Divide (.15x) __..__..__..__..__..__..__..__.._
 72
   65
 73
    6
 40
4.7625
 49
1.905
 74
    0
 49
-0.9525
 74
    0
 49
0
 74
    0
 49
-0.9525
 74
    0
 49
0
 74
    0
 49
-0.9525
 74
    0
  0
LTYPE
  5
40
330
5
100
AcDbSymbolTableRecord
100
AcDbLinetypeTableRecord
  2
DIVIDE2
 70
    0
  3
Divide (.5x) __..__..__..__..__..__..__..__.._
 72
   65
 73
    6
 40
15.875
 49
6.35
 74
    0
 49
-3.175
 74
    0
 49
0
 74
    0
 49
-3.175
 74
    0
 49
0
 74
    0
 49
-3.175
 74
    0
  0
LTYPE
  5
41
330
5
100
AcDbSymbolTableRecord
100
AcDbLinetypeTableRecord
  2
DIVIDEX2
 70
    0
  3
Divide (2x) ________  .  .  ________  .  .  _
 72
   65
 73
    6
 40
63.5
 49
25.4
 74
    0
 49
-12.7
 74
    0
 49
0
 74
    0
 49
-12.7
 74
    0
 49
0
 74
    0
 49
-12.7
 74
    0
  0
LTYPE
  5
42
330
5
100
AcDbSymbolTableRecord
100
AcDbLinetypeTableRecord
  2
BORDER
 70
    0
  3
Border __ __ . __ __ . __ __ . __ __ . __ __ .
 72
   65
 73
    6
 40
44.45
 49
12.7
 74
    0
 49
-6.35
 74
    0
 49
12.7
 74
    0
 49
-6.35
 74
    0
 49
0
 74
    0
 49
-6.35
 74
    0
  0
LTYPE
  5
43
330
5
100
AcDbSymbolTableRecord
100
AcDbLinetypeTableRecord
  2
BORDERTINY
 70
    0
  3
Border (.15x) __.__.__.__.__.__.__.__.__.__.__.
 72
   65
 73
    6
 40
6.6675
 49
1.905
 74
    0
 49
-0.9525
 74
    0
 49
1.905
 74
    0
 49
-0.9525
 74
    0
 49
0
 74
    0
 49
-0.9525
 74
    0
  0
LTYPE
  5
44
330
5
100
AcDbSymbolTableRecord
100
AcDbLinetypeTableRecord
  2
BORDER2
 70
    0
  3
Border (.5x) __.__.__.__.__.__.__.__.__.__.__.
 72
   65
 73
    6
 40
22.225
 49
6.35
 74
    0
 49
-3.175
 74
    0
 49
6.35
 74
    0
 49
-3.175
 74
    0
 49
0
 74
    0
 49
-3.175
 74
    0
  0
LTYPE
  5
45
330
5
100
AcDbSymbolTableRecord
100
AcDbLinetypeTableRecord
  2
BORDERX2
 70
    0
  3
Border (2x) ____  ____  .  ____  ____  .  ___
 72
   65
 73
    6
 40
88.89999999999999
 49
25.4
 74
    0
 49
-12.7
 74
    0
 49
25.4
 74
    0
 49
-12.7
 74
    0
 49
0
 74
    0
 49
-12.7
 74
    0
  0
LTYPE
  5
46
330
5
100
AcDbSymbolTableRecord
100
AcDbLinetypeTableRecord
  2
CENTER
 70
    0
  3
Center ____ _ ____ _ ____ _ ____ _ ____ _ ____
 72
   65
 73
    4
 40
50.8
 49
31.75
 74
    0
 49
-6.35
 74
    0
 49
6.35
 74
    0
 49
-6.35
 74
    0
  0
LTYPE
  5
47
330
5
100
AcDbSymbolTableRecord
100
AcDbLinetypeTableRecord
  2
CENTERTINY
 70
    0
  3
Center (.15x) ___ _ ___ _ ___ _ ___ _ ___ _ ___
 72
   65
 73
    4
 40
7.619999999999999
 49
4.7625
 74
    0
 49
-0.9525
 74
    0
 49
0.9525
 74
    0
 49
-0.9525
 74
    0
  0
LTYPE
  5
48
330
5
100
AcDbSymbolTableRecord
100
AcDbLinetypeTableRecord
  2
CENTER2
 70
    0
  3
Center (.5x) ___ _ ___ _ ___ _ ___ _ ___ _ ___
 72
   65
 73
    4
 40
28.575
 49
19.05
 74
    0
 49
-3.175
 74
    0
 49
3.175
 74
    0
 49
-3.175
 74
    0
  0
LTYPE
  5
49
330
5
100
AcDbSymbolTableRecord
100
AcDbLinetypeTableRecord
  2
CENTERX2
 70
    0
  3
Center (2x) ________  __  ________  __  _____
 72
   65
 73
    4
 40
101.6
 49
63.5
 74
    0
 49
-12.7
 74
    0
 49
12.7
 74
    0
 49
-12.7
 74
    0
  0
ENDTAB
  0
TABLE
  2
LAYER
  5
2
330
0
100
AcDbSymbolTable
 70
    1
  0
LAYER
  5
10
330
2
100
AcDbSymbolTableRecord
100
AcDbLayerTableRecord
  2
0
 70
    0
 62
    7
  6
CONTINUOUS
370
    0
390
F
  0
ENDTAB
  0
TABLE
  2
STYLE
  5
3
330
0
100
AcDbSymbolTable
 70
    3
  0
STYLE
  5
4A
330
2
100
AcDbSymbolTableRecord
100
AcDbTextStyleTableRecord
  2
standard
 70
    0
 40
0
 41
1
 50
0
 71
    0
 42
1
  3
standard
  4

  0
ENDTAB
  0
TABLE
  2
VIEW
  5
6
330
0
100
AcDbSymbolTable
 70
    0
  0
ENDTAB
  0
TABLE
  2
UCS
  5
7
330
0
100
AcDbSymbolTable
 70
    0
  0
ENDTAB
  0
TABLE
  2
APPID
  5
9
330
0
100
AcDbSymbolTable
 70
    1
  0
APPID
  5
12
330
9
100
AcDbSymbolTableRecord
100
AcDbRegAppTableRecord
  2
ACAD
 70
    0
  0
APPID
  5
4B
330
9
100
AcDbSymbolTableRecord
100
AcDbRegAppTableRecord
  2
LibreCad
 70
    0
  0
ENDTAB
  0
TABLE
  2
DIMSTYLE
  5
A
330
0
100
AcDbSymbolTable
 70
    1
100
AcDbDimStyleTable
 71
    1
  0
DIMSTYLE
105
4C
330
A
100
AcDbSymbolTableRecord
100
AcDbDimStyleTableRecord
  2
Standard
 70
    0
 40
2.5
 41
0.1
 42
0.025
 43
0.38
 44
0.05
 45
0
 46
0
 47
0
 48
0
 49
1
140
5
141
0.09
142
4
143
25.4
144
1
145
0
146
1
147
0.025
148
0
 71
    0
 72
    0
 73
    0
 74
    1
 75
    0
 76
    0
 77
    0
 78
    8
 79
    0
170
    0
171
    2
172
    0
173
    0
174
    0
175
    0
176
    0
177
    0
178
    0
179
    0
271
    2
272
    4
273
    2
274
    2
275
    0
276
    0
277
    4
278
   44
279
    0
280
    0
281
    0
282
    0
283
    1
284
    0
285
    0
286
    0
288
    0
289
    3
340
4A
  0
ENDTAB
  0
TABLE
  2
BLOCK_RECORD
  5
1
330
0
100
AcDbSymbolTable
 70
    2
  0
BLOCK_RECORD
  5
1F
330
1
100
AcDbSymbolTableRecord
100
AcDbBlockTableRecord
  2
*Model_Space
 70
    0
280
    1
281
    0
  0
BLOCK_RECORD
  5
1E
330
1
100
AcDbSymbolTableRecord
100
AcDbBlockTableRecord
  2
*Paper_Space
 70
    0
280
    1
281
    0
  0
BLOCK_RECORD
  5
4D
330
1
100
AcDbSymbolTableRecord
100
AcDbBlockTableRecord
  2
*D1
 70
    0
280
    1
281
    0
  0
BLOCK_RECORD
  5
50
330
1
100
AcDbSymbolTableRecord
100
AcDbBlockTableRecord
  2
*D8
 70
    0
280
    1
281
    0
  0
BLOCK_RECORD
  5
53
330
1
100
AcDbSymbolTableRecord
100
AcDbBlockTableRecord
  2
*D13
 70
    0
280
    1
281
    0
  0
BLOCK_RECORD
  5
56
330
1
100
AcDbSymbolTableRecord
100
AcDbBlockTableRecord
  2
*D2
 70
    0
280
    1
281
    0
  0
BLOCK_RECORD
  5
59
330
1
100
AcDbSymbolTableRecord
100
AcDbBlockTableRecord
  2
*D6
 70
    0
280
    1
281
    0
  0
BLOCK_RECORD
  5
5C
330
1
100
AcDbSymbolTableRecord
100
AcDbBlockTableRecord
  2
*D11
 70
    0
280
    1
281
    0
  0
BLOCK_RECORD
  5
5F
330
1
100
AcDbSymbolTableRecord
100
AcDbBlockTableRecord
  2
*D3
 70
    0
280
    1
281
    0
  0
BLOCK_RECORD
  5
62
330
1
100
AcDbSymbolTableRecord
100
AcDbBlockTableRecord
  2
*D5
 70
    0
280
    1
281
    0
  0
BLOCK_RECORD
  5
65
330
1
100
AcDbSymbolTableRecord
100
AcDbBlockTableRecord
  2
*D9
 70
    0
280
    1
281
    0
  0
BLOCK_RECORD
  5
68
330
1
100
AcDbSymbolTableRecord
100
AcDbBlockTableRecord
  2
*D10
 70
    0
280
    1
281
    0
  0
BLOCK_RECORD
  5
6B
330
1
100
AcDbSymbolTableRecord
100
AcDbBlockTableRecord
  2
*D12
 70
    0
280
    1
281
    0
  0
BLOCK_RECORD
  5
6E
330
1
100
AcDbSymbolTableRecord
100
AcDbBlockTableRecord
  2
*D4
 70
    0
280
    1
281
    0
  0
BLOCK_RECORD
  5
71
330
1
100
AcDbSymbolTableRecord
100
AcDbBlockTableRecord
  2
*D7
 70
    0
280
    1
281
    0
  0
ENDTAB
  0
ENDSEC
  0
SECTION
  2
BLOCKS
  0
BLOCK
  5
20
330
1F
100
AcDbEntity
  8
0
100
AcDbBlockBegin
  2
*Model_Space
 70
    0
 10
0
 20
0
 30
0
  3
*Model_Space
  1

  0
ENDBLK
  5
21
330
1F
100
AcDbEntity
  8
0
100
AcDbBlockEnd
  0
BLOCK
  5
1C
330
1B
100
AcDbEntity
  8
0
100
AcDbBlockBegin
  2
*Paper_Space
 70
    0
 10
0
 20
0
 30
0
  3
*Paper_Space
  1

  0
ENDBLK
  5
1D
330
1F
100
AcDbEntity
  8
0
100
AcDbBlockEnd
  0
BLOCK
  5
4E
330
4D
100
AcDbEntity
  8
0
100
AcDbBlockBegin
  2
*D1
 70
    1
 10
0
 20
0
  3
*D1
  1

  0
LINE
  5
74
100
AcDbEntity
  8
0
  6
ByBlock
 62
    0
370
   -2
100
AcDbLine
 10
776
 20
6436
 11
776
 21
5026
  0
MTEXT
  5
75
100
AcDbEntity
  8
0
  6
CONTINUOUS
 62
    0
370
   -2
100
AcDbMText
 10
712.875
 20
5731
 30
0
 40
12.5
 41
52.77777777777855
 71
    5
 72
    1
  1
117'-6"
  7
standard
210
0
220
0
230
1
 50
90
 73
    2
 44
1
  0
LINE
  5
76
100
AcDbEntity
  8
0
  6
ByBlock
 62
    0
370
   -2
100
AcDbLine
 10
783.0710678118654
 20
6428.928932188134
 11
768.9289321881346
 21
6443.071067811866
  0
LINE
  5
77
100
AcDbEntity
  8
0
  6
ByBlock
 62
    0
370
   -2
100
AcDbLine
 10
783.0710678118654
 20
5018.928932188134
 11
768.9289321881346
 21
5033.071067811866
  0
LINE
  5
78
100
AcDbEntity
  8
0
  6
ByBlock
 62
    0
370
   -2
100
AcDbLine
 10
795.9375
 20
6436
 11
775.875
 21
6436
  0
LINE
  5
79
100
AcDbEntity
  8
0
  6
ByBlock
 62
    0
370
   -2
100
AcDbLine
 10
795.9375
 20
5026
 11
775.875
 21
5026
  0
ENDBLK
  5
4F
330
4D
100
AcDbEntity
  8
0
100
AcDbBlockEnd
  0
BLOCK
  5
51
330
50
100
AcDbEntity
  8
0
100
AcDbBlockBegin
  2
*D8
 70
    1
 10
0
 20
0
  3
*D8
  1

  0
LINE
  5
7A
100
AcDbEntity
  8
0
  6
ByBlock
 62
    0
370
   -2
100
AcDbLine
 10
3741
 20
6576
 11
4756
 21
6576
  0
MTEXT
  5
7B
100
AcDbEntity
  8
0
  6
CONTINUOUS
 62
    0
370
   -2
100
AcDbMText
 10
4248.5
 20
6639.125
 30
0
 40
12.5
 41
50
 71
    5
 72
    1
  1
84'-7"
  7
standard
210
0
220
0
230
1
 50
0
 73
    2
 44
1
  0
LINE
  5
7C
100
AcDbEntity
  8
0
  6
ByBlock
 62
    0
370
   -2
100
AcDbLine
 10
3748.071067811865
 20
6583.071067811866
 11
3733.928932188135
 21
6568.928932188134
  0
LINE
  5
7D
100
AcDbEntity
  8
0
  6
ByBlock
 62
    0
370
   -2
100
AcDbLine
 10
4763.071067811866
 20
6583.071067811866
 11
4748.928932188134
 21
6568.928932188134
  0
LINE
  5
7E
100
AcDbEntity
  8
0
  6
ByBlock
 62
    0
370
   -2
100
AcDbLine
 10
3741
 20
6576.062500000001
 11
3741
 21
6576.125
  0
LINE
  5
7F
100
AcDbEntity
  8
0
  6
ByBlock
 62
    0
370
   -2
100
AcDbLine
 10
4756
 20
6576.0625
 11
4756
 21
6576.125
  0
ENDBLK
  5
52
330
50
100
AcDbEntity
  8
0
100
AcDbBlockEnd
  0
BLOCK
  5
54
330
53
100
AcDbEntity
  8
0
100
AcDbBlockBegin
  2
*D13
 70
    1
 10
0
 20
0
  3
*D13
  1

  0
LINE
  5
80
100
AcDbEntity
  8
0
  6
ByBlock
 62
    0
370
   -2
100
AcDbLine
 10
8176
 20
-774
 11
8176
 21
906
  0
MTEXT
  5
81
100
AcDbEntity
  8
0
  6
CONTINUOUS
 62
    0
370
   -2
100
AcDbMText
 10
8112.875
 20
66
 30
0
 40
12.5
 41
56.94444444444444
 71
    5
 72
    1
  1
140'-0"
  7
standard
210
0
220
0
230
1
 50
90
 73
    2
 44
1
  0
LINE
  5
82
100
AcDbEntity
  8
0
  6
ByBlock
 62
    0
370
   -2
100
AcDbLine
 10
8168.928932188134
 20
-766.9289321881345
 11
8183.071067811866
 21
-781.0710678118655
  0
LINE
  5
83
100
AcDbEntity
  8
0
  6
ByBlock
 62
    0
370
   -2
100
AcDbLine
 10
8168.928932188134
 20
913.0710678118655
 11
8183.071067811866
 21
898.9289321881345
  0
LINE
  5
84
100
AcDbEntity
  8
0
  6
ByBlock
 62
    0
370
   -2
100
AcDbLine
 10
7856.0625
 20
-774
 11
8176.125
 21
-774
  0
LINE
  5
85
100
AcDbEntity
  8
0
  6
ByBlock
 62
    0
370
   -2
100
AcDbLine
 10
7856.0625
 20
906
 11
8176.125
 21
906
  0
ENDBLK
  5
55
330
53
100
AcDbEntity
  8
0
100
AcDbBlockEnd
  0
BLOCK
  5
57
330
56
100
AcDbEntity
  8
0
100
AcDbBlockBegin
  2
*D2
 70
    1
 10
0
 20
0
  3
*D2
  1

  0
LINE
  5
86
100
AcDbEntity
  8
0
  6
ByBlock
 62
    0
370
   -2
100
AcDbLine
 10
776
 20
5026
 11
776
 21
3736
  0
MTEXT
  5
87
100
AcDbEntity
  8
0
  6
CONTINUOUS
 62
    0
370
   -2
100
AcDbMText
 10
712.875
 20
4381
 30
0
 40
12.5
 41
55.55555555555633
 71
    5
 72
    1
  1
107'-6"
  7
standard
210
0
220
0
230
1
 50
90
 73
    2
 44
1
  0
LINE
  5
88
100
AcDbEntity
  8
0
  6
ByBlock
 62
    0
370
   -2
100
AcDbLine
 10
783.0710678118654
 20
5018.928932188134
 11
768.9289321881346
 21
5033.071067811866
  0
LINE
  5
89
100
AcDbEntity
  8
0
  6
ByBlock
 62
    0
370
   -2
100
AcDbLine
 10
783.0710678118654
 20
3728.928932188135
 11
768.9289321881346
 21
3743.071067811865
  0
LINE
  5
8A
100
AcDbEntity
  8
0
  6
ByBlock
 62
    0
370
   -2
100
AcDbLine
 10
795.9375
 20
5026
 11
775.875
 21
5026
  0
LINE
  5
8B
100
AcDbEntity
  8
0
  6
ByBlock
 62
    0
370
   -2
100
AcDbLine
 10
795.9375
 20
3736
 11
775.875
 21
3736
  0
ENDBLK
  5
58
330
56
100
AcDbEntity
  8
0
100
AcDbBlockEnd
  0
BLOCK
  5
5A
330
59
100
AcDbEntity
  8
0
100
AcDbBlockBegin
  2
*D6
 70
    1
 10
0
 20
0
  3
*D6
  1

  0
LINE
  5
8C
100
AcDbEntity
  8
0
  6
ByBlock
 62
    0
370
   -2
100
AcDbLine
 10
1006
 20
6576
 11
2851
 21
6576
  0
MTEXT
  5
8D
100
AcDbEntity
  8
0
  6
CONTINUOUS
 62
    0
370
   -2
100
AcDbMText
 10
1928.5
 20
6639.125
 30
0
 40
12.5
 41
55.55555555555788
 71
    5
 72
    1
  1
153'-9"
  7
standard
210
0
220
0
230
1
 50
0
 73
    2
 44
1
  0
LINE
  5
8E
100
AcDbEntity
  8
0
  6
ByBlock
 62
    0
370
   -2
100
AcDbLine
 10
1013.071067811866
 20
6583.071067811866
 11
998.9289321881345
 21
6568.928932188134
  0
LINE
  5
8F
100
AcDbEntity
  8
0
  6
ByBlock
 62
    0
370
   -2
100
AcDbLine
 10
2858.071067811865
 20
6583.071067811866
 11
2843.928932188135
 21
6568.928932188134
  0
LINE
  5
90
100
AcDbEntity
  8
0
  6
ByBlock
 62
    0
370
   -2
100
AcDbLine
 10
1006
 20
6576.0625
 11
1006
 21
6576.125
  0
LINE
  5
91
100
AcDbEntity
  8
0
  6
ByBlock
 62
    0
370
   -2
100
AcDbLine
 10
2851
 20
6576.0625
 11
2851
 21
6576.125
  0
ENDBLK
  5
5B
330
59
100
AcDbEntity
  8
0
100
AcDbBlockEnd
  0
BLOCK
  5
5D
330
5C
100
AcDbEntity
  8
0
100
AcDbBlockBegin
  2
*D11
 70
    1
 10
0
 20
0
  3
*D11
  1

  0
LINE
  5
92
100
AcDbEntity
  8
0
  6
ByBlock
 62
    0
370
   -2
100
AcDbLine
 10
6671
 20
6776
 11
6961
 21
6776
  0
MTEXT
  5
93
100
AcDbEntity
  8
0
  6
CONTINUOUS
 62
    0
370
   -2
100
AcDbMText
 10
6776
 20
6976
 30
0
 40
12.5
 41
50
 71
    5
 72
    1
  1
24'-2"
  7
standard
210
0
220
0
230
1
 50
0
 73
    2
 44
1
  0
LINE
  5
94
100
AcDbEntity
  8
0
  6
ByBlock
 62
    0
370
   -2
100
AcDbLine
 10
6678.071067811866
 20
6783.071067811866
 11
6663.928932188134
 21
6768.928932188134
  0
LINE
  5
95
100
AcDbEntity
  8
0
  6
ByBlock
 62
    0
370
   -2
100
AcDbLine
 10
6968.071067811866
 20
6783.071067811866
 11
6953.928932188134
 21
6768.928932188134
  0
LINE
  5
96
100
AcDbEntity
  8
0
  6
ByBlock
 62
    0
370
   -2
100
AcDbLine
 10
6671
 20
6576.062500000001
 11
6671
 21
6776.125
  0
LINE
  5
97
100
AcDbEntity
  8
0
  6
ByBlock
 62
    0
370
   -2
100
AcDbLine
 10
6961
 20
6576.062500000001
 11
6961
 21
6776.125
  0
ENDBLK
  5
5E
330
5C
100
AcDbEntity
  8
0
100
AcDbBlockEnd
  0
BLOCK
  5
60
330
5F
100
AcDbEntity
  8
0
100
AcDbBlockBegin
  2
*D3
 70
    1
 10
0
 20
0
  3
*D3
  1

  0
LINE
  5
98
100
AcDbEntity
  8
0
  6
ByBlock
 62
    0
370
   -2
100
AcDbLine
 10
796
 20
3736
 11
796
 21
2431
  0
MTEXT
  5
99
100
AcDbEntity
  8
0
  6
CONTINUOUS
 62
    0
370
   -2
100
AcDbMText
 10
732.875
 20
3083.5
 30
0
 40
12.5
 41
55.55555555555632
 71
    5
 72
    1
  1
108'-9"
  7
standard
210
0
220
0
230
1
 50
90
 73
    2
 44
1
  0
LINE
  5
9A
100
AcDbEntity
  8
0
  6
ByBlock
 62
    0
370
   -2
100
AcDbLine
 10
803.0710678118654
 20
3728.928932188135
 11
788.9289321881346
 21
3743.071067811865
  0
LINE
  5
9B
100
AcDbEntity
  8
0
  6
ByBlock
 62
    0
370
   -2
100
AcDbLine
 10
803.0710678118654
 20
2423.928932188135
 11
788.9289321881346
 21
2438.071067811865
  0
LINE
  5
9C
100
AcDbEntity
  8
0
  6
ByBlock
 62
    0
370
   -2
100
AcDbLine
 10
795.9375
 20
3736
 11
795.875
 21
3736
  0
LINE
  5
9D
100
AcDbEntity
  8
0
  6
ByBlock
 62
    0
370
   -2
100
AcDbLine
 10
795.9375
 20
2431
 11
795.875
 21
2431
  0
ENDBLK
  5
61
330
5F
100
AcDbEntity
  8
0
100
AcDbBlockEnd
  0
BLOCK
  5
63
330
62
100
AcDbEntity
  8
0
100
AcDbBlockBegin
  2
*D5
 70
    1
 10
0
 20
0
  3
*D5
  1

  0
LINE
  5
9E
100
AcDbEntity
  8
0
  6
ByBlock
 62
    0
370
   -2
100
AcDbLine
 10
796
 20
1636
 11
796
 21
906
  0
MTEXT
  5
9F
100
AcDbEntity
  8
0
  6
CONTINUOUS
 62
    0
370
   -2
100
AcDbMText
 10
732.875
 20
1271
 30
0
 40
12.5
 41
55.55555555555632
 71
    5
 72
    1
  1
60'-10"
  7
standard
210
0
220
0
230
1
 50
90
 73
    2
 44
1
  0
LINE
  5
A0
100
AcDbEntity
  8
0
  6
ByBlock
 62
    0
370
   -2
100
AcDbLine
 10
803.0710678118654
 20
1628.928932188134
 11
788.9289321881346
 21
1643.071067811866
  0
LINE
  5
A1
100
AcDbEntity
  8
0
  6
ByBlock
 62
    0
370
   -2
100
AcDbLine
 10
803.0710678118654
 20
898.9289321881345
 11
788.9289321881346
 21
913.0710678118655
  0
LINE
  5
A2
100
AcDbEntity
  8
0
  6
ByBlock
 62
    0
370
   -2
100
AcDbLine
 10
795.9375
 20
1636
 11
795.875
 21
1636
  0
LINE
  5
A3
100
AcDbEntity
  8
0
  6
ByBlock
 62
    0
370
   -2
100
AcDbLine
 10
795.9375
 20
906
 11
795.875
 21
906
  0
ENDBLK
  5
64
330
62
100
AcDbEntity
  8
0
100
AcDbBlockEnd
  0
BLOCK
  5
66
330
65
100
AcDbEntity
  8
0
100
AcDbBlockBegin
  2
*D9
 70
    1
 10
0
 20
0
  3
*D9
  1

  0
LINE
  5
A4
100
AcDbEntity
  8
0
  6
ByBlock
 62
    0
370
   -2
100
AcDbLine
 10
4756
 20
6576
 11
6671
 21
6576
  0
MTEXT
  5
A5
100
AcDbEntity
  8
0
  6
CONTINUOUS
 62
    0
370
   -2
100
AcDbMText
 10
5713.5
 20
6639.125
 30
0
 40
12.5
 41
55.55555555555711
 71
    5
 72
    1
  1
159'-7"
  7
standard
210
0
220
0
230
1
 50
0
 73
    2
 44
1
  0
LINE
  5
A6
100
AcDbEntity
  8
0
  6
ByBlock
 62
    0
370
   -2
100
AcDbLine
 10
4763.071067811866
 20
6583.071067811866
 11
4748.928932188134
 21
6568.928932188134
  0
LINE
  5
A7
100
AcDbEntity
  8
0
  6
ByBlock
 62
    0
370
   -2
100
AcDbLine
 10
6678.071067811866
 20
6583.071067811866
 11
6663.928932188134
 21
6568.928932188134
  0
LINE
  5
A8
100
AcDbEntity
  8
0
  6
ByBlock
 62
    0
370
   -2
100
AcDbLine
 10
4756
 20
6576.0625
 11
4756
 21
6576.125
  0
LINE
  5
A9
100
AcDbEntity
  8
0
  6
ByBlock
 62
    0
370
   -2
100
AcDbLine
 10
6671
 20
6576.062500000001
 11
6671
 21
6576.125
  0
ENDBLK
  5
67
330
65
100
AcDbEntity
  8
0
100
AcDbBlockEnd
  0
BLOCK
  5
69
330
68
100
AcDbEntity
  8
0
100
AcDbBlockBegin
  2
*D10
 70
    1
 10
0
 20
0
  3
*D10
  1

  0
LINE
  5
AA
100
AcDbEntity
  8
0
  6
ByBlock
 62
    0
370
   -2
100
AcDbLine
 10
6961
 20
6576
 11
7836
 21
6576
  0
MTEXT
  5
AB
100
AcDbEntity
  8
0
  6
CONTINUOUS
 62
    0
370
   -2
100
AcDbMText
 10
7398.5
 20
6639.125
 30
0
 40
12.5
 41
52.77777777777778
 71
    5
 72
    1
  1
72'-11"
  7
standard
210
0
220
0
230
1
 50
0
 73
    2
 44
1
  0
LINE
  5
AC
100
AcDbEntity
  8
0
  6
ByBlock
 62
    0
370
   -2
100
AcDbLine
 10
6968.071067811866
 20
6583.071067811866
 11
6953.928932188134
 21
6568.928932188134
  0
LINE
  5
AD
100
AcDbEntity
  8
0
  6
ByBlock
 62
    0
370
   -2
100
AcDbLine
 10
7843.071067811866
 20
6583.071067811866
 11
7828.928932188134
 21
6568.928932188134
  0
LINE
  5
AE
100
AcDbEntity
  8
0
  6
ByBlock
 62
    0
370
   -2
100
AcDbLine
 10
6961
 20
6576.062500000001
 11
6961
 21
6576.125
  0
LINE
  5
AF
100
AcDbEntity
  8
0
  6
ByBlock
 62
    0
370
   -2
100
AcDbLine
 10
7836
 20
6576.0625
 11
7836
 21
6576.125
  0
ENDBLK
  5
6A
330
68
100
AcDbEntity
  8
0
100
AcDbBlockEnd
  0
BLOCK
  5
6C
330
6B
100
AcDbEntity
  8
0
100
AcDbBlockBegin
  2
*D12
 70
    1
 10
0
 20
0
  3
*D12
  1

  0
LINE
  5
B0
100
AcDbEntity
  8
0
  6
ByBlock
 62
    0
370
   -2
100
AcDbLine
 10
576
 20
2431
 11
576
 21
2316
  0
MTEXT
  5
B1
100
AcDbEntity
  8
0
  6
CONTINUOUS
 62
    0
370
   -2
100
AcDbMText
 10
376
 20
2376
 30
0
 40
12.5
 41
38.88888888889043
 71
    5
 72
    1
  1
9'-7"
  7
standard
210
0
220
0
230
1
 50
90
 73
    2
 44
1
  0
LINE
  5
B2
100
AcDbEntity
  8
0
  6
ByBlock
 62
    0
370
   -2
100
AcDbLine
 10
583.0710678118654
 20
2423.928932188135
 11
568.9289321881346
 21
2438.071067811865
  0
LINE
  5
B3
100
AcDbEntity
  8
0
  6
ByBlock
 62
    0
370
   -2
100
AcDbLine
 10
583.0710678118654
 20
2308.928932188135
 11
568.9289321881346
 21
2323.071067811865
  0
LINE
  5
B4
100
AcDbEntity
  8
0
  6
ByBlock
 62
    0
370
   -2
100
AcDbLine
 10
795.9375
 20
2431
 11
575.875
 21
2431
  0
LINE
  5
B5
100
AcDbEntity
  8
0
  6
ByBlock
 62
    0
370
   -2
100
AcDbLine
 10
795.9375
 20
2316
 11
575.875
 21
2316
  0
ENDBLK
  5
6D
330
6B
100
AcDbEntity
  8
0
100
AcDbBlockEnd
  0
BLOCK
  5
6F
330
6E
100
AcDbEntity
  8
0
100
AcDbBlockBegin
  2
*D4
 70
    1
 10
0
 20
0
  3
*D4
  1

  0
LINE
  5
B6
100
AcDbEntity
  8
0
  6
ByBlock
 62
    0
370
   -2
100
AcDbLine
 10
776
 20
2316
 11
776
 21
1636
  0
MTEXT
  5
B7
100
AcDbEntity
  8
0
  6
CONTINUOUS
 62
    0
370
   -2
100
AcDbMText
 10
712.875
 20
1976
 30
0
 40
12.5
 41
48.61111111111266
 71
    5
 72
    1
  1
56'-8"
  7
standard
210
0
220
0
230
1
 50
90
 73
    2
 44
1
  0
LINE
  5
B8
100
AcDbEntity
  8
0
  6
ByBlock
 62
    0
370
   -2
100
AcDbLine
 10
783.0710678118654
 20
2308.928932188135
 11
768.9289321881346
 21
2323.071067811865
  0
LINE
  5
B9
100
AcDbEntity
  8
0
  6
ByBlock
 62
    0
370
   -2
100
AcDbLine
 10
783.0710678118654
 20
1628.928932188134
 11
768.9289321881346
 21
1643.071067811866
  0
LINE
  5
BA
100
AcDbEntity
  8
0
  6
ByBlock
 62
    0
370
   -2
100
AcDbLine
 10
795.9375
 20
2316
 11
775.875
 21
2316
  0
LINE
  5
BB
100
AcDbEntity
  8
0
  6
ByBlock
 62
    0
370
   -2
100
AcDbLine
 10
795.9375
 20
1636
 11
775.875
 21
1636
  0
ENDBLK
  5
70
330
6E
100
AcDbEntity
  8
0
100
AcDbBlockEnd
  0
BLOCK
  5
72
330
71
100
AcDbEntity
  8
0
100
AcDbBlockBegin
  2
*D7
 70
    1
 10
0
 20
0
  3
*D7
  1

  0
LINE
  5
BC
100
AcDbEntity
  8
0
  6
ByBlock
 62
    0
370
   -2
100
AcDbLine
 10
2851
 20
6576.000000000001
 11
3741
 21
6576.000000000001
  0
MTEXT
  5
BD
100
AcDbEntity
  8
0
  6
CONTINUOUS
 62
    0
370
   -2
100
AcDbMText
 10
3296
 20
6639.125000000001
 30
0
 40
12.5
 41
50
 71
    5
 72
    1
  1
74'-2"
  7
standard
210
0
220
0
230
1
 50
0
 73
    2
 44
1
  0
LINE
  5
BE
100
AcDbEntity
  8
0
  6
ByBlock
 62
    0
370
   -2
100
AcDbLine
 10
2858.071067811865
 20
6583.071067811867
 11
2843.928932188135
 21
6568.928932188135
  0
LINE
  5
BF
100
AcDbEntity
  8
0
  6
ByBlock
 62
    0
370
   -2
100
AcDbLine
 10
3748.071067811865
 20
6583.071067811867
 11
3733.928932188135
 21
6568.928932188135
  0
LINE
  5
C0
100
AcDbEntity
  8
0
  6
ByBlock
 62
    0
370
   -2
100
AcDbLine
 10
2851
 20
6576.0625
 11
2851
 21
6576.125000000001
  0
LINE
  5
C1
100
AcDbEntity
  8
0
  6
ByBlock
 62
    0
370
   -2
100
AcDbLine
 10
3741
 20
6576.062500000001
 11
3741
 21
6576.125000000001
  0
ENDBLK
  5
73
330
71
100
AcDbEntity
  8
0
100
AcDbBlockEnd
  0
ENDSEC
  0
SECTION
  2
ENTITIES
  0
HATCH
  5
C2
100
AcDbEntity
  8
0
  6
ByLayer
 62
  256
370
   -1
100
AcDbHatch
 10
0
 20
0
 30
0
210
0
220
0
230
1
  2
SOLID
 70
    1
 71
    0
 91
    1
 92
    0
 93
    4
 72
    1
 10
4336
 20
2401
 11
4276
 21
2401
 72
    1
 10
4276
 20
2401
 11
4276
 21
2461
 72
    1
 10
4276
 20
2461
 11
4336
 21
2461
 72
    1
 10
4336
 20
2461
 11
4336
 21
2401
 97
    0
 75
    0
 76
    1
 98
    0
  0
HATCH
  5
C3
100
AcDbEntity
  8
0
  6
ByLayer
 62
  256
370
   -1
100
AcDbHatch
 10
0
 20
0
 30
0
210
0
220
0
230
1
  2
SOLID
 70
    1
 71
    0
 91
    1
 92
    0
 93
    4
 72
    1
 10
3374
 20
2401.17
 11
3314
 21
2401.17
 72
    1
 10
3314
 20
2401.17
 11
3314
 21
2461.17
 72
    1
 10
3314
 20
2461.17
 11
3374
 21
2461.17
 72
    1
 10
3374
 20
2461.17
 11
3374
 21
2401.17
 97
    0
 75
    0
 76
    1
 98
    0
  0
HATCH
  5
C4
100
AcDbEntity
  8
0
  6
ByLayer
 62
  256
370
   -1
100
AcDbHatch
 10
0
 20
0
 30
0
210
0
220
0
230
1
  2
SOLID
 70
    1
 71
    0
 91
    1
 92
    0
 93
    4
 72
    1
 10
6586
 20
936
 11
6726
 21
936
 72
    1
 10
6726
 20
936
 11
6726
 21
796
 72
    1
 10
6726
 20
796
 11
6586
 21
796
 72
    1
 10
6586
 20
796
 11
6586
 21
936
 97
    0
 75
    0
 76
    1
 98
    0
  0
HATCH
  5
C5
100
AcDbEntity
  8
0
  6
ByLayer
 62
  256
370
   -1
100
AcDbHatch
 10
0
 20
0
 30
0
210
0
220
0
230
1
  2
SOLID
 70
    1
 71
    0
 91
    1
 92
    0
 93
    4
 72
    1
 10
7716
 20
936
 11
7856
 21
936
 72
    1
 10
7856
 20
936
 11
7856
 21
796
 72
    1
 10
7856
 20
796
 11
7716
 21
796
 72
    1
 10
7716
 20
796
 11
7716
 21
936
 97
    0
 75
    0
 76
    1
 98
    0
  0
HATCH
  5
C6
100
AcDbEntity
  8
0
  6
ByLayer
 62
  256
370
   -1
100
AcDbHatch
 10
0
 20
0
 30
0
210
0
220
0
230
1
  2
ar-conc
 70
    0
 71
    0
 91
    1
 92
    0
 93
    9
 72
    1
 10
1116
 20
916
 11
7796
 21
-697.9090979177331
 72
    1
 10
7796
 20
-697.9090979177331
 11
7796
 21
6406
 72
    1
 10
7796
 20
6406
 11
1106
 21
6406
 72
    1
 10
1106
 20
6406
 11
1106
 21
6466
 72
    1
 10
1106
 20
6466
 11
7856
 21
6466
 72
    1
 10
7856
 20
6466
 11
7856
 21
-774
 72
    1
 10
7856
 20
-774
 11
976
 21
876
 72
    1
 10
976
 20
876
 11
1116
 21
876
 72
    1
 10
1116
 20
876
 11
1116
 21
916
 97
    0
 75
    0
 76
    1
 52
0
 41
1
 77
    0
 78
    0
 98
    0
  0
HATCH
  5
C7
100
AcDbEntity
  8
0
  6
ByLayer
 62
  256
370
   -1
100
AcDbHatch
 10
0
 20
0
 30
0
210
0
220
0
230
1
  2
ar-conc
 70
    0
 71
    0
 91
    1
 92
    0
 93
    4
 72
    1
 10
976
 20
1016
 11
1036
 21
1016
 72
    1
 10
1036
 20
1016
 11
1036
 21
6336
 72
    1
 10
1036
 20
6336
 11
976.0000000000005
 21
6336
 72
    1
 10
976.0000000000005
 20
6336
 11
976
 21
1016
 97
    0
 75
    0
 76
    1
 52
0
 41
1
 77
    0
 78
    0
 98
    0
  0
HATCH
  5
C8
100
AcDbEntity
  8
0
  6
ByLayer
 62
  256
370
   -1
100
AcDbHatch
 10
0
 20
0
 30
0
210
0
220
0
230
1
  2
SOLID
 70
    1
 71
    0
 91
    1
 92
    0
 93
    4
 72
    1
 10
6596
 20
1706
 11
6736
 21
1706
 72
    1
 10
6736
 20
1706
 11
6736
 21
1566
 72
    1
 10
6736
 20
1566
 11
6596
 21
1566
 72
    1
 10
6596
 20
1566
 11
6596
 21
1706
 97
    0
 75
    0
 76
    1
 98
    0
  0
HATCH
  5
C9
100
AcDbEntity
  8
0
  6
ByLayer
 62
  256
370
   -1
100
AcDbHatch
 10
0
 20
0
 30
0
210
0
220
0
230
1
  2
SOLID
 70
    1
 71
    0
 91
    1
 92
    0
 93
    4
 72
    1
 10
4686
 20
1706
 11
4826
 21
1706
 72
    1
 10
4826
 20
1706
 11
4826
 21
1566
 72
    1
 10
4826
 20
1566
 11
4686
 21
1566
 72
    1
 10
4686
 20
1566
 11
4686
 21
1706
 97
    0
 75
    0
 76
    1
 98
    0
  0
HATCH
  5
CA
100
AcDbEntity
  8
0
  6
ByLayer
 62
  256
370
   -1
100
AcDbHatch
 10
0
 20
0
 30
0
210
0
220
0
230
1
  2
SOLID
 70
    1
 71
    0
 91
    1
 92
    0
 93
    4
 72
    1
 10
4686
 20
5056
 11
4826
 21
5056
 72
    1
 10
4826
 20
5056
 11
4826
 21
4916
 72
    1
 10
4826
 20
4916
 11
4686
 21
4916
 72
    1
 10
4686
 20
4916
 11
4686
 21
5056
 97
    0
 75
    0
 76
    1
 98
    0
  0
HATCH
  5
CB
100
AcDbEntity
  8
0
  6
ByLayer
 62
  256
370
   -1
100
AcDbHatch
 10
0
 20
0
 30
0
210
0
220
0
230
1
  2
SOLID
 70
    1
 71
    0
 91
    1
 92
    0
 93
    4
 72
    1
 10
6896
 20
5056
 11
7036
 21
5056
 72
    1
 10
7036
 20
5056
 11
7036
 21
4916
 72
    1
 10
7036
 20
4916
 11
6896
 21
4916
 72
    1
 10
6896
 20
4916
 11
6896
 21
5056
 97
    0
 75
    0
 76
    1
 98
    0
  0
HATCH
  5
CC
100
AcDbEntity
  8
0
  6
ByLayer
 62
  256
370
   -1
100
AcDbHatch
 10
0
 20
0
 30
0
210
0
220
0
230
1
  2
SOLID
 70
    1
 71
    0
 91
    1
 92
    0
 93
    4
 72
    1
 10
4686
 20
2476
 11
4826
 21
2476
 72
    1
 10
4826
 20
2476
 11
4826
 21
2336
 72
    1
 10
4826
 20
2336
 11
4686
 21
2336
 72
    1
 10
4686
 20
2336
 11
4686
 21
2476
 97
    0
 75
    0
 76
    1
 98
    0
  0
HATCH
  5
CD
100
AcDbEntity
  8
0
  6
ByLayer
 62
  256
370
   -1
100
AcDbHatch
 10
0
 20
0
 30
0
210
0
220
0
230
1
  2
SOLID
 70
    1
 71
    0
 91
    1
 92
    0
 93
    4
 72
    1
 10
2776
 20
2426
 11
2916
 21
2426
 72
    1
 10
2916
 20
2426
 11
2916
 21
2286
 72
    1
 10
2916
 20
2286
 11
2776
 21
2286
 72
    1
 10
2776
 20
2286
 11
2776
 21
2426
 97
    0
 75
    0
 76
    1
 98
    0
  0
HATCH
  5
CE
100
AcDbEntity
  8
0
  6
ByLayer
 62
  256
370
   -1
100
AcDbHatch
 10
0
 20
0
 30
0
210
0
220
0
230
1
  2
SOLID
 70
    1
 71
    0
 91
    1
 92
    0
 93
    4
 72
    1
 10
4686
 20
1016
 11
4826
 21
1016
 72
    1
 10
4826
 20
1016
 11
4826
 21
876
 72
    1
 10
4826
 20
876
 11
4686
 21
876
 72
    1
 10
4686
 20
876
 11
4686
 21
1016
 97
    0
 75
    0
 76
    1
 98
    0
  0
HATCH
  5
CF
100
AcDbEntity
  8
0
  6
ByLayer
 62
  256
370
   -1
100
AcDbHatch
 10
0
 20
0
 30
0
210
0
220
0
230
1
  2
SOLID
 70
    1
 71
    0
 91
    1
 92
    0
 93
    4
 72
    1
 10
2776
 20
1016
 11
2916
 21
1016
 72
    1
 10
2916
 20
1016
 11
2916
 21
876
 72
    1
 10
2916
 20
876
 11
2776
 21
876
 72
    1
 10
2776
 20
876
 11
2776
 21
1016
 97
    0
 75
    0
 76
    1
 98
    0
  0
HATCH
  5
D0
100
AcDbEntity
  8
0
  6
ByLayer
 62
  256
370
   -1
100
AcDbHatch
 10
0
 20
0
 30
0
210
0
220
0
230
1
  2
SOLID
 70
    1
 71
    0
 91
    1
 92
    0
 93
    4
 72
    1
 10
976
 20
1016
 11
1116
 21
1016
 72
    1
 10
1116
 20
1016
 11
1116
 21
876
 72
    1
 10
1116
 20
876
 11
976
 21
876
 72
    1
 10
976
 20
876
 11
976
 21
1016
 97
    0
 75
    0
 76
    1
 98
    0
  0
HATCH
  5
D1
100
AcDbEntity
  8
0
  6
ByLayer
 62
  256
370
   -1
100
AcDbHatch
 10
0
 20
0
 30
0
210
0
220
0
230
1
  2
SOLID
 70
    1
 71
    0
 91
    1
 92
    0
 93
    4
 72
    1
 10
976
 20
2386
 11
1116
 21
2386
 72
    1
 10
1116
 20
2386
 11
1116
 21
2246
 72
    1
 10
1116
 20
2246
 11
976
 21
2246
 72
    1
 10
976
 20
2246
 11
976
 21
2386
 97
    0
 75
    0
 76
    1
 98
    0
  0
HATCH
  5
D2
100
AcDbEntity
  8
0
  6
ByLayer
 62
  256
370
   -1
100
AcDbHatch
 10
0
 20
0
 30
0
210
0
220
0
230
1
  2
SOLID
 70
    1
 71
    0
 91
    1
 92
    0
 93
    4
 72
    1
 10
976
 20
3806
 11
1116
 21
3806
 72
    1
 10
1116
 20
3806
 11
1116
 21
3666
 72
    1
 10
1116
 20
3666
 11
976
 21
3666
 72
    1
 10
976
 20
3666
 11
976
 21
3806
 97
    0
 75
    0
 76
    1
 98
    0
  0
HATCH
  5
D3
100
AcDbEntity
  8
0
  6
ByLayer
 62
  256
370
   -1
100
AcDbHatch
 10
0
 20
0
 30
0
210
0
220
0
230
1
  2
SOLID
 70
    1
 71
    0
 91
    1
 92
    0
 93
    4
 72
    1
 10
3666
 20
3316
 11
3806
 21
3316
 72
    1
 10
3806
 20
3316
 11
3806
 21
3176
 72
    1
 10
3806
 20
3176
 11
3666
 21
3176
 72
    1
 10
3666
 20
3176
 11
3666
 21
3316
 97
    0
 75
    0
 76
    1
 98
    0
  0
HATCH
  5
D4
100
AcDbEntity
  8
0
  6
ByLayer
 62
  256
370
   -1
100
AcDbHatch
 10
0
 20
0
 30
0
210
0
220
0
230
1
  2
SOLID
 70
    1
 71
    0
 91
    1
 92
    0
 93
    4
 72
    1
 10
7756
 20
2461
 11
7856
 21
2461
 72
    1
 10
7856
 20
2461
 11
7856
 21
2331
 72
    1
 10
7856
 20
2331
 11
7756
 21
2331
 72
    1
 10
7756
 20
2331
 11
7756
 21
2461
 97
    0
 75
    0
 76
    1
 98
    0
  0
HATCH
  5
D5
100
AcDbEntity
  8
0
  6
ByLayer
 62
  256
370
   -1
100
AcDbHatch
 10
0
 20
0
 30
0
210
0
220
0
230
1
  2
SOLID
 70
    1
 71
    0
 91
    1
 92
    0
 93
    4
 72
    1
 10
7756
 20
3806
 11
7856
 21
3806
 72
    1
 10
7856
 20
3806
 11
7856
 21
3676
 72
    1
 10
7856
 20
3676
 11
7756
 21
3676
 72
    1
 10
7756
 20
3676
 11
7756
 21
3806
 97
    0
 75
    0
 76
    1
 98
    0
  0
HATCH
  5
D6
100
AcDbEntity
  8
0
  6
ByLayer
 62
  256
370
   -1
100
AcDbHatch
 10
0
 20
0
 30
0
210
0
220
0
230
1
  2
SOLID
 70
    1
 71
    0
 91
    1
 92
    0
 93
    4
 72
    1
 10
7756
 20
5056
 11
7856
 21
5056
 72
    1
 10
7856
 20
5056
 11
7856
 21
4926
 72
    1
 10
7856
 20
4926
 11
7756
 21
4926
 72
    1
 10
7756
 20
4926
 11
7756
 21
5056
 97
    0
 75
    0
 76
    1
 98
    0
  0
HATCH
  5
D7
100
AcDbEntity
  8
0
  6
ByLayer
 62
  256
370
   -1
100
AcDbHatch
 10
0
 20
0
 30
0
210
0
220
0
230
1
  2
SOLID
 70
    1
 71
    0
 91
    1
 92
    0
 93
    4
 72
    1
 10
976
 20
5056
 11
1116
 21
5056
 72
    1
 10
1116
 20
5056
 11
1116
 21
4916
 72
    1
 10
1116
 20
4916
 11
976
 21
4916
 72
    1
 10
976
 20
4916
 11
976
 21
5056
 97
    0
 75
    0
 76
    1
 98
    0
  0
HATCH
  5
D8
100
AcDbEntity
  8
0
  6
ByLayer
 62
  256
370
   -1
100
AcDbHatch
 10
0
 20
0
 30
0
210
0
220
0
230
1
  2
SOLID
 70
    1
 71
    0
 91
    1
 92
    0
 93
    4
 72
    1
 10
3676
 20
5056
 11
3816
 21
5056
 72
    1
 10
3816
 20
5056
 11
3816
 21
4916
 72
    1
 10
3816
 20
4916
 11
3676
 21
4916
 72
    1
 10
3676
 20
4916
 11
3676
 21
5056
 97
    0
 75
    0
 76
    1
 98
    0
  0
HATCH
  5
D9
100
AcDbEntity
  8
0
  6
ByLayer
 62
  256
370
   -1
100
AcDbHatch
 10
0
 20
0
 30
0
210
0
220
0
230
1
  2
SOLID
 70
    1
 71
    0
 91
    1
 92
    0
 93
    4
 72
    1
 10
3676.000000000001
 20
6466
 11
3806
 21
6466
 72
    1
 10
3806
 20
6466
 11
3806
 21
6336
 72
    1
 10
3806
 20
6336
 11
3676.000000000001
 21
6336
 72
    1
 10
3676.000000000001
 20
6336
 11
3676.000000000001
 21
6466
 97
    0
 75
    0
 76
    1
 98
    0
  0
HATCH
  5
DA
100
AcDbEntity
  8
0
  6
ByLayer
 62
  256
370
   -1
100
AcDbHatch
 10
0
 20
0
 30
0
210
0
220
0
230
1
  2
SOLID
 70
    1
 71
    0
 91
    1
 92
    0
 93
    4
 72
    1
 10
976.0000000000005
 20
6466
 11
1106
 21
6466
 72
    1
 10
1106
 20
6466
 11
1106
 21
6336
 72
    1
 10
1106
 20
6336
 11
976.0000000000005
 21
6336
 72
    1
 10
976.0000000000005
 20
6336
 11
976.0000000000005
 21
6466
 97
    0
 75
    0
 76
    1
 98
    0
  0
HATCH
  5
DB
100
AcDbEntity
  8
0
  6
ByLayer
 62
  256
370
   -1
100
AcDbHatch
 10
0
 20
0
 30
0
210
0
220
0
230
1
  2
SOLID
 70
    1
 71
    0
 91
    1
 92
    0
 93
    4
 72
    1
 10
4336
 20
3176
 11
4276
 21
3176
 72
    1
 10
4276
 20
3176
 11
4276
 21
3236
 72
    1
 10
4276
 20
3236
 11
4336
 21
3236
 72
    1
 10
4336
 20
3236
 11
4336
 21
3176
 97
    0
 75
    0
 76
    1
 98
    0
  0
HATCH
  5
DC
100
AcDbEntity
  8
0
  6
ByLayer
 62
  256
370
   -1
100
AcDbHatch
 10
0
 20
0
 30
0
210
0
220
0
230
1
  2
SOLID
 70
    1
 71
    0
 91
    1
 92
    0
 93
    4
 72
    1
 10
3376
 20
3176
 11
3316
 21
3176
 72
    1
 10
3316
 20
3176
 11
3316
 21
3236
 72
    1
 10
3316
 20
3236
 11
3376
 21
3236
 72
    1
 10
3376
 20
3236
 11
3376
 21
3176
 97
    0
 75
    0
 76
    1
 98
    0
  0
LINE
  5
DD
100
AcDbEntity
  8
0
  6
ByLayer
 62
  256
370
   -1
100
AcDbLine
 10
7856
 20
6466
 11
7856
 21
-774
  0
LINE
  5
DE
100
AcDbEntity
  8
0
  6
ByLayer
 62
  256
370
   -1
100
AcDbLine
 10
7796
 20
6406
 11
7796
 21
-697.9090979177331
  0
LINE
  5
DF
100
AcDbEntity
  8
0
  6
DASHED2
 62
    7
370
    0
100
AcDbLine
 10
1036
 20
5056
 11
7796
 21
5056
  0
LINE
  5
E0
100
AcDbEntity
  8
0
  6
DASHED2
 62
    7
370
    0
100
AcDbLine
 10
1036
 20
4996
 11
7796
 21
4996
  0
LINE
  5
E1
100
AcDbEntity
  8
0
  6
DASHED2
 62
    7
370
    0
100
AcDbLine
 10
1036
 20
3766
 11
7796
 21
3766
  0
LINE
  5
E2
100
AcDbEntity
  8
0
  6
DASHED2
 62
    7
370
    0
100
AcDbLine
 10
1036
 20
3706
 11
7796
 21
3706
  0
LINE
  5
E3
100
AcDbEntity
  8
0
  6
DASHED2
 62
    7
370
    0
100
AcDbLine
 10
1036
 20
2346
 11
7796
 21
2346
  0
LINE
  5
E4
100
AcDbEntity
  8
0
  6
DASHED2
 62
    7
370
    0
100
AcDbLine
 10
1036
 20
2286
 11
7796
 21
2286
  0
LINE
  5
E5
100
AcDbEntity
  8
0
  6
DASHED2
 62
    7
370
    0
100
AcDbLine
 10
3711
 20
2346
 11
3711
 21
6466
  0
LINE
  5
E6
100
AcDbEntity
  8
0
  6
DASHED2
 62
    7
370
    0
100
AcDbLine
 10
3771
 20
2346
 11
3771
 21
6406
  0
LINE
  5
E7
100
AcDbEntity
  8
0
  6
DASHED2
 62
    7
370
    0
100
AcDbLine
 10
4336
 20
3236
 11
4336
 21
2461
  0
LINE
  5
E8
100
AcDbEntity
  8
0
  6
DASHED2
 62
    7
370
    0
100
AcDbLine
 10
4276
 20
3176
 11
4276
 21
2461
  0
LINE
  5
E9
100
AcDbEntity
  8
0
  6
DASHED2
 62
    7
370
    0
100
AcDbLine
 10
3374
 20
2461
 11
3376
 21
3176
  0
LINE
  5
EA
100
AcDbEntity
  8
0
  6
DASHED2
 62
    7
370
    0
100
AcDbLine
 10
3314
 20
2461.17
 11
3316
 21
3236
  0
LINE
  5
EB
100
AcDbEntity
  8
0
  6
DASHED2
 62
    7
370
    0
100
AcDbLine
 10
3316
 20
3236
 11
4336
 21
3236
  0
LINE
  5
EC
100
AcDbEntity
  8
0
  6
DASHED2
 62
    7
370
    0
100
AcDbLine
 10
3376
 20
3176
 11
4276
 21
3176
  0
LWPOLYLINE
  5
ED
100
AcDbEntity
  8
0
  6
ByLayer
 62
  256
370
   -1
100
AcDbPolyline
 90
    4
 70
    1
 43
0
 10
3376
 20
3176
 10
3316
 20
3176
 10
3316
 20
3236
 10
3376
 20
3236
  0
LWPOLYLINE
  5
EE
100
AcDbEntity
  8
0
  6
ByLayer
 62
  256
370
   -1
100
AcDbPolyline
 90
    4
 70
    1
 43
0
 10
976.0000000000005
 20
6466
 10
1106
 20
6466
 10
1106
 20
6336
 10
976.0000000000005
 20
6336
  0
LWPOLYLINE
  5
EF
100
AcDbEntity
  8
0
  6
ByLayer
 62
  256
370
   -1
100
AcDbPolyline
 90
    4
 70
    1
 43
0
 10
3676
 20
5056
 10
3816
 20
5056
 10
3816
 20
4916
 10
3676
 20
4916
  0
LWPOLYLINE
  5
F0
100
AcDbEntity
  8
0
  6
ByLayer
 62
  256
370
   -1
100
AcDbPolyline
 90
    4
 70
    1
 43
0
 10
7756
 20
5056
 10
7856
 20
5056
 10
7856
 20
4926
 10
7756
 20
4926
  0
LINE
  5
F1
100
AcDbEntity
  8
0
  6
DASHED2
 62
    7
370
    0
100
AcDbLine
 10
1284.239024139653
 20
876
 11
7796
 21
876
  0
LINE
  5
F2
100
AcDbEntity
  8
0
  6
DASHED2
 62
    7
370
    0
100
AcDbLine
 10
2821
 20
504.5609852391785
 11
2821
 21
2346
  0
LINE
  5
F3
100
AcDbEntity
  8
0
  6
DASHED2
 62
    7
370
    0
100
AcDbLine
 10
2881
 20
490.0588334825125
 11
2881
 21
2346
  0
LINE
  5
F4
100
AcDbEntity
  8
0
  6
DASHED2
 62
    7
370
    0
100
AcDbLine
 10
4726
 20
44.11766696502445
 11
4726
 21
2346
  0
LINE
  5
F5
100
AcDbEntity
  8
0
  6
DASHED2
 62
    7
370
    0
100
AcDbLine
 10
6631
 20
2346
 11
6631
 21
-416.3256513091292
  0
LINE
  5
F6
100
AcDbEntity
  8
0
  6
DASHED2
 62
    7
370
    0
100
AcDbLine
 10
6691
 20
2346
 11
6691
 21
-430.8278030657962
  0
LINE
  5
F7
100
AcDbEntity
  8
0
  6
DASHED2
 62
    7
370
    0
100
AcDbLine
 10
1036
 20
936
 11
7796
 21
936
  0
LINE
  5
F8
100
AcDbEntity
  8
0
  6
CENTERTINY
 62
    7
370
    0
100
AcDbLine
 10
796
 20
906
 11
7856
 21
906
  0
LINE
  5
F9
100
AcDbEntity
  8
0
  6
CENTERTINY
 62
    7
370
    0
100
AcDbLine
 10
796
 20
6436
 11
7856
 21
6436
  0
LINE
  5
FA
100
AcDbEntity
  8
0
  6
CENTERTINY
 62
    7
370
    0
100
AcDbLine
 10
796
 20
5026
 11
7856
 21
5026
  0
LINE
  5
FB
100
AcDbEntity
  8
0
  6
CENTERTINY
 62
    7
370
    0
100
AcDbLine
 10
796
 20
2316
 11
7856
 21
2316
  0
LINE
  5
FC
100
AcDbEntity
  8
0
  6
CENTERTINY
 62
    7
370
    0
100
AcDbLine
 10
796
 20
3736
 11
7856
 21
3736
  0
LINE
  5
FD
100
AcDbEntity
  8
0
  6
CENTERTINY
 62
    7
370
    0
100
AcDbLine
 10
1006
 20
876
 11
1006
 21
6576
  0
LINE
  5
FE
100
AcDbEntity
  8
0
  6
CENTERTINY
 62
    7
370
    0
100
AcDbLine
 10
2851
 20
497.3099093608453
 11
2851
 21
6576
  0
LINE
  5
FF
100
AcDbEntity
  8
0
  6
CENTERTINY
 62
    7
370
    0
100
AcDbLine
 10
3741
 20
876
 11
3741
 21
6576.000000000001
  0
LINE
  5
100
100
AcDbEntity
  8
0
  6
CENTERTINY
 62
    7
370
    0
100
AcDbLine
 10
4756
 20
36.86659108669164
 11
4756
 21
6576
  0
LINE
  5
101
100
AcDbEntity
  8
0
  6
CENTERTINY
 62
    7
370
    0
100
AcDbLine
 10
6671
 20
-425.9937524802399
 11
6671
 21
6576.000000000001
  0
LINE
  5
102
100
AcDbEntity
  8
0
  6
CENTERTINY
 62
    7
370
    0
100
AcDbLine
 10
6961
 20
876
 11
6961
 21
6576.000000000001
  0
LINE
  5
103
100
AcDbEntity
  8
0
  6
CENTERTINY
 62
    7
370
    0
100
AcDbLine
 10
7836
 20
876
 11
7836
 21
6576
  0
LINE
  5
104
100
AcDbEntity
  8
0
  6
CENTERTINY
 62
    7
370
    0
100
AcDbLine
 10
796
 20
1636
 11
7856
 21
1636
  0
DIMENSION
  5
105
100
AcDbEntity
  8
0
  6
ByLayer
 62
  256
370
   -1
100
AcDbDimension
  2
*D1
 10
776
 20
5026
 30
0
 11
712.875
 21
5731
 31
0
 70
   32
 71
    5
 72
    0
  3
Standard
 53
0
210
0
220
0
230
1
100
AcDbAlignedDimension
 13
796
 23
6436
 33
0
 14
796
 24
5026
 34
0
 50
90
100
AcDbRotatedDimension
  0
DIMENSION
  5
106
100
AcDbEntity
  8
0
  6
ByLayer
 62
  256
370
   -1
100
AcDbDimension
  2
*D2
 10
776
 20
3736
 30
0
 11
712.875
 21
4381
 31
0
 70
   32
 71
    5
 72
    0
  3
Standard
 53
0
210
0
220
0
230
1
100
AcDbAlignedDimension
 13
796
 23
5026
 33
0
 14
796
 24
3736
 34
0
 50
90
100
AcDbRotatedDimension
  0
DIMENSION
  5
107
100
AcDbEntity
  8
0
  6
ByLayer
 62
  256
370
   -1
100
AcDbDimension
  2
*D3
 10
796
 20
2431
 30
0
 11
732.875
 21
3083.5
 31
0
 70
   32
 71
    5
 72
    0
  3
Standard
 53
0
210
0
220
0
230
1
100
AcDbAlignedDimension
 13
796
 23
3736
 33
0
 14
796
 24
2431
 34
0
 50
90
100
AcDbRotatedDimension
  0
DIMENSION
  5
108
100
AcDbEntity
  8
0
  6
ByLayer
 62
  256
370
   -1
100
AcDbDimension
  2
*D4
 10
776
 20
1636
 30
0
 11
712.875
 21
1976
 31
0
 70
   32
 71
    5
 72
    0
  3
Standard
 53
0
210
0
220
0
230
1
100
AcDbAlignedDimension
 13
796
 23
2316
 33
0
 14
796
 24
1636
 34
0
 50
90
100
AcDbRotatedDimension
  0
DIMENSION
  5
109
100
AcDbEntity
  8
0
  6
ByLayer
 62
  256
370
   -1
100
AcDbDimension
  2
*D5
 10
796
 20
906
 30
0
 11
732.875
 21
1271
 31
0
 70
   32
 71
    5
 72
    0
  3
Standard
 53
0
210
0
220
0
230
1
100
AcDbAlignedDimension
 13
796
 23
1636
 33
0
 14
796
 24
906
 34
0
 50
90
100
AcDbRotatedDimension
  0
DIMENSION
  5
10A
100
AcDbEntity
  8
0
  6
ByLayer
 62
  256
370
   -1
100
AcDbDimension
  2
*D6
 10
2851
 20
6576
 30
0
 11
1928.5
 21
6639.125
 31
0
 70
   32
 71
    5
 72
    0
  3
Standard
 53
0
210
0
220
0
230
1
100
AcDbAlignedDimension
 13
1006
 23
6576
 33
0
 14
2851
 24
6576
 34
0
100
AcDbRotatedDimension
  0
DIMENSION
  5
10B
100
AcDbEntity
  8
0
  6
ByLayer
 62
  256
370
   -1
100
AcDbDimension
  2
*D7
 10
3741
 20
6576.000000000001
 30
0
 11
3296
 21
6639.125000000001
 31
0
 70
   32
 71
    5
 72
    0
  3
Standard
 53
0
210
0
220
0
230
1
100
AcDbAlignedDimension
 13
2851
 23
6576
 33
0
 14
3741
 24
6576.000000000001
 34
0
100
AcDbRotatedDimension
  0
DIMENSION
  5
10C
100
AcDbEntity
  8
0
  6
ByLayer
 62
  256
370
   -1
100
AcDbDimension
  2
*D8
 10
4756
 20
6576
 30
0
 11
4248.5
 21
6639.125
 31
0
 70
   32
 71
    5
 72
    0
  3
Standard
 53
0
210
0
220
0
230
1
100
AcDbAlignedDimension
 13
3741
 23
6576.000000000001
 33
0
 14
4756
 24
6576
 34
0
100
AcDbRotatedDimension
  0
DIMENSION
  5
10D
100
AcDbEntity
  8
0
  6
ByLayer
 62
  256
370
   -1
100
AcDbDimension
  2
*D9
 10
6671
 20
6576
 30
0
 11
5713.5
 21
6639.125
 31
0
 70
   32
 71
    5
 72
    0
  3
Standard
 53
0
210
0
220
0
230
1
100
AcDbAlignedDimension
 13
4756
 23
6576
 33
0
 14
6671
 24
6576.000000000001
 34
0
100
AcDbRotatedDimension
  0
DIMENSION
  5
10E
100
AcDbEntity
  8
0
  6
ByLayer
 62
  256
370
   -1
100
AcDbDimension
  2
*D10
 10
7836
 20
6576
 30
0
 11
7398.5
 21
6639.125
 31
0
 70
   32
 71
    5
 72
    0
  3
Standard
 53
0
210
0
220
0
230
1
100
AcDbAlignedDimension
 13
6961
 23
6576.000000000001
 33
0
 14
7836
 24
6576
 34
0
100
AcDbRotatedDimension
  0
DIMENSION
  5
10F
100
AcDbEntity
  8
0
  6
ByLayer
 62
  256
370
   -1
100
AcDbDimension
  2
*D11
 10
6961
 20
6776
 30
0
 11
6776
 21
6976
 31
0
 70
   32
 71
    5
 72
    0
  3
Standard
 53
0
210
0
220
0
230
1
100
AcDbAlignedDimension
 13
6671
 23
6576.000000000001
 33
0
 14
6961
 24
6576.000000000001
 34
0
100
AcDbRotatedDimension
  0
DIMENSION
  5
110
100
AcDbEntity
  8
0
  6
ByLayer
 62
  256
370
   -1
100
AcDbDimension
  2
*D12
 10
576
 20
2316
 30
0
 11
376
 21
2376
 31
0
 70
   32
 71
    5
 72
    0
  3
Standard
 53
0
210
0
220
0
230
1
100
AcDbAlignedDimension
 13
796
 23
2431
 33
0
 14
796
 24
2316
 34
0
 50
90
100
AcDbRotatedDimension
  0
DIMENSION
  5
111
100
AcDbEntity
  8
0
  6
ByLayer
 62
  256
370
   -1
100
AcDbDimension
  2
*D13
 10
8176
 20
906
 30
0
 11
8112.875
 21
66
 31
0
 70
   32
 71
    5
 72
    0
  3
Standard
 53
0
210
0
220
0
230
1
100
AcDbAlignedDimension
 13
7856
 23
-774
 33
0
 14
7856
 24
906
 34
0
 50
90
100
AcDbRotatedDimension
  0
LINE
  5
112
100
AcDbEntity
  8
0
  6
DASHED2
 62
    7
370
    0
100
AcDbLine
 10
4786
 20
29.61551520835792
 11
4786
 21
2346
  0
LINE
  5
113
100
AcDbEntity
  8
0
  6
ByLayer
 62
  256
370
   -1
100
AcDbLine
 10
976
 20
1016
 11
1036
 21
1016
  0
LINE
  5
114
100
AcDbEntity
  8
0
  6
ByLayer
 62
  256
370
   -1
100
AcDbLine
 10
976
 20
1016
 11
976.0000000000005
 21
6336
  0
LINE
  5
115
100
AcDbEntity
  8
0
  6
ByLayer
 62
  256
370
   -1
100
AcDbLine
 10
1036
 20
1016
 11
1036
 21
6336
  0
LINE
  5
116
100
AcDbEntity
  8
0
  6
ByLayer
 62
  256
370
   -1
100
AcDbLine
 10
976.0000000000005
 20
6336
 11
1036
 21
6336
  0
LINE
  5
117
100
AcDbEntity
  8
0
  6
ByLayer
 62
  256
370
   -1
100
AcDbLine
 10
1106
 20
6406
 11
7796
 21
6406
  0
LINE
  5
118
100
AcDbEntity
  8
0
  6
ByLayer
 62
  256
370
   -1
100
AcDbLine
 10
1106
 20
6466
 11
7856
 21
6466
  0
LINE
  5
119
100
AcDbEntity
  8
0
  6
ByLayer
 62
  256
370
   -1
100
AcDbLine
 10
1106
 20
6466
 11
1106
 21
6406
  0
LINE
  5
11A
100
AcDbEntity
  8
0
  6
ByLayer
 62
  256
370
   -1
100
AcDbLine
 10
7856
 20
-774
 11
976
 21
876
  0
LINE
  5
11B
100
AcDbEntity
  8
0
  6
ByLayer
 62
  256
370
   -1
100
AcDbLine
 10
7796
 20
-697.9090979177331
 11
1116
 21
916
  0
LINE
  5
11C
100
AcDbEntity
  8
0
  6
ByLayer
 62
  256
370
   -1
100
AcDbLine
 10
1116
 20
916
 11
1116
 21
876
  0
LINE
  5
11D
100
AcDbEntity
  8
0
  6
ByLayer
 62
  256
370
   -1
100
AcDbLine
 10
1116
 20
876
 11
976
 21
876
  0
MTEXT
  5
11E
100
AcDbEntity
  8
0
  6
ByLayer
 62
  256
370
   -1
100
AcDbMText
 10
7356
 20
5056
 30
0
 40
60
 41
86.66666666666667
 71
    1
 72
    1
  1
B4
  7
standard
210
0
220
0
230
1
 50
0
 73
    2
 44
1
  0
MTEXT
  5
11F
100
AcDbEntity
  8
0
  6
ByLayer
 62
  256
370
   -1
100
AcDbMText
 10
5856
 20
5056
 30
0
 40
60
 41
86.66666666666667
 71
    1
 72
    1
  1
B4
  7
standard
210
0
220
0
230
1
 50
0
 73
    2
 44
1
  0
MTEXT
  5
120
100
AcDbEntity
  8
0
  6
ByLayer
 62
  256
370
   -1
100
AcDbMText
 10
4196
 20
5056
 30
0
 40
60
 41
86.66666666666667
 71
    1
 72
    1
  1
B4
  7
standard
210
0
220
0
230
1
 50
0
 73
    2
 44
1
  0
MTEXT
  5
121
100
AcDbEntity
  8
0
  6
ByLayer
 62
  256
370
   -1
100
AcDbMText
 10
1946
 20
2346
 30
0
 40
60
 41
86.66666666666667
 71
    1
 72
    1
  1
B4
  7
standard
210
0
220
0
230
1
 50
0
 73
    2
 44
1
  0
MTEXT
  5
122
100
AcDbEntity
  8
0
  6
ByLayer
 62
  256
370
   -1
100
AcDbMText
 10
7476
 20
2346
 30
0
 40
60
 41
86.66666666666667
 71
    1
 72
    1
  1
B4
  7
standard
210
0
220
0
230
1
 50
0
 73
    2
 44
1
  0
MTEXT
  5
123
100
AcDbEntity
  8
0
  6
ByLayer
 62
  256
370
   -1
100
AcDbMText
 10
4206
 20
936
 30
0
 40
60
 41
86.66666666666667
 71
    1
 72
    1
  1
B4
  7
standard
210
0
220
0
230
1
 50
0
 73
    2
 44
1
  0
MTEXT
  5
124
100
AcDbEntity
  8
0
  6
ByLayer
 62
  256
370
   -1
100
AcDbMText
 10
2676
 20
5056
 30
0
 40
60
 41
66.66666666666667
 71
    1
 72
    1
  1
B1
  7
standard
210
0
220
0
230
1
 50
0
 73
    2
 44
1
  0
MTEXT
  5
125
100
AcDbEntity
  8
0
  6
ByLayer
 62
  256
370
   -1
100
AcDbMText
 10
2646
 20
3766
 30
0
 40
60
 41
66.66666666666667
 71
    1
 72
    1
  1
B1
  7
standard
210
0
220
0
230
1
 50
0
 73
    2
 44
1
  0
MTEXT
  5
126
100
AcDbEntity
  8
0
  6
ByLayer
 62
  256
370
   -1
100
AcDbMText
 10
3711
 20
5273
 30
0
 40
60
 41
80
 71
    1
 72
    1
  1
B2
  7
standard
210
0
220
0
230
1
 50
90
 73
    2
 44
1
  0
MTEXT
  5
127
100
AcDbEntity
  8
0
  6
ByLayer
 62
  256
370
   -1
100
AcDbMText
 10
3710.999999999999
 20
4702
 30
0
 40
60
 41
80
 71
    1
 72
    1
  1
B2
  7
standard
210
0
220
0
230
1
 50
90
 73
    2
 44
1
  0
MTEXT
  5
128
100
AcDbEntity
  8
0
  6
ByLayer
 62
  256
370
   -1
100
AcDbMText
 10
5706
 20
3196
 30
0
 40
60
 41
80.00000000000372
 71
    1
 72
    1
  1
B3
  7
standard
210
0
220
0
230
1
 50
90
 73
    2
 44
1
  0
LINE
  5
129
100
AcDbEntity
  8
0
  6
DASHED2
 62
    7
370
    0
100
AcDbLine
 10
5706
 20
2401
 11
5706
 21
5056
  0
LINE
  5
12A
100
AcDbEntity
  8
0
  6
DASHED2
 62
    7
370
    0
100
AcDbLine
 10
5766
 20
2401
 11
5766
 21
5056
  0
MTEXT
  5
12B
100
AcDbEntity
  8
0
  6
ByLayer
 62
  256
370
   -1
100
AcDbMText
 10
5706
 20
3856
 30
0
 40
60
 41
80.00000000000372
 71
    1
 72
    1
  1
B3
  7
standard
210
0
220
0
230
1
 50
90
 73
    2
 44
1
  0
MTEXT
  5
12C
100
AcDbEntity
  8
0
  6
ByLayer
 62
  256
370
   -1
100
AcDbMText
 10
3316
 20
2826
 30
0
 40
60
 41
80.00000000000372
 71
    1
 72
    1
  1
B5
  7
standard
210
0
220
0
230
1
 50
90
 73
    2
 44
1
  0
MTEXT
  5
12D
100
AcDbEntity
  8
0
  6
ByLayer
 62
  256
370
   -1
100
AcDbMText
 10
4276
 20
2836
 30
0
 40
60
 41
80.00000000000372
 71
    1
 72
    1
  1
B5
  7
standard
210
0
220
0
230
1
 50
90
 73
    2
 44
1
  0
MTEXT
  5
12E
100
AcDbEntity
  8
0
  6
ByLayer
 62
  256
370
   -1
100
AcDbMText
 10
6631
 20
1220
 30
0
 40
60
 41
80.00000000000372
 71
    1
 72
    1
  1
B5
  7
standard
210
0
220
0
230
1
 50
90
 73
    2
 44
1
  0
MTEXT
  5
12F
100
AcDbEntity
  8
0
  6
ByLayer
 62
  256
370
   -1
100
AcDbMText
 10
6631
 20
516
 30
0
 40
60
 41
80.00000000000372
 71
    1
 72
    1
  1
B5
  7
standard
210
0
220
0
230
1
 50
90
 73
    2
 44
1
  0
MTEXT
  5
130
100
AcDbEntity
  8
0
  6
ByLayer
 62
  256
370
   -1
100
AcDbMText
 10
4726
 20
616
 30
0
 40
60
 41
80.00000000000372
 71
    1
 72
    1
  1
B5
  7
standard
210
0
220
0
230
1
 50
90
 73
    2
 44
1
  0
MTEXT
  5
131
100
AcDbEntity
  8
0
  6
ByLayer
 62
  256
370
   -1
100
AcDbMText
 10
4726
 20
1206
 30
0
 40
60
 41
80.00000000000372
 71
    1
 72
    1
  1
B5
  7
standard
210
0
220
0
230
1
 50
90
 73
    2
 44
1
  0
MTEXT
  5
132
100
AcDbEntity
  8
0
  6
ByLayer
 62
  256
370
   -1
100
AcDbMText
 10
2821
 20
1341
 30
0
 40
60
 41
80.00000000000372
 71
    1
 72
    1
  1
B5
  7
standard
210
0
220
0
230
1
 50
90
 73
    2
 44
1
  0
MTEXT
  5
133
100
AcDbEntity
  8
0
  6
ByLayer
 62
  256
370
   -1
100
AcDbMText
 10
2436
 20
936
 30
0
 40
60
 41
80.00000000000372
 71
    1
 72
    1
  1
B5
  7
standard
210
0
220
0
230
1
 50
0
 73
    2
 44
1
  0
MTEXT
  5
134
100
AcDbEntity
  8
0
  6
ByLayer
 62
  256
370
   -1
100
AcDbMText
 10
3876
 20
3236
 30
0
 40
60
 41
80.00000000000372
 71
    1
 72
    1
  1
B5
  7
standard
210
0
220
0
230
1
 50
0
 73
    2
 44
1
  0
LINE
  5
135
100
AcDbEntity
  8
0
  6
ByLayer
 62
  256
370
   -1
100
AcDbLine
 10
4276
 20
2461
 11
3376
 21
3176
  0
LINE
  5
136
100
AcDbEntity
  8
0
  6
ByLayer
 62
  256
370
   -1
100
AcDbLine
 10
4276
 20
3176
 11
3374
 21
2461
  0
MTEXT
  5
137
100
AcDbEntity
  8
0
  6
ByLayer
 62
  256
370
   -1
100
AcDbMText
 10
6030
 20
2461
 30
0
 40
60
 41
86.66666666666667
 71
    1
 72
    1
  1
B4
  7
standard
210
0
220
0
230
1
 50
0
 73
    2
 44
1
  0
LINE
  5
138
100
AcDbEntity
  8
0
  6
DASHED2
 62
    7
370
    0
100
AcDbLine
 10
2851
 20
2461
 11
7796
 21
2461
  0
LINE
  5
139
100
AcDbEntity
  8
0
  6
CENTERTINY
 62
    7
370
    0
100
AcDbLine
 10
2851
 20
2431
 11
7856
 21
2431
  0
LINE
  5
13A
100
AcDbEntity
  8
0
  6
DASHED2
 62
    7
370
    0
100
AcDbLine
 10
2851
 20
2401
 11
7796
 21
2401
  0
LINE
  5
13B
100
AcDbEntity
  8
0
  6
ByLayer
 62
  256
370
   -1
100
AcDbLine
 10
2146
 20
696
 11
2146
 21
626
  0
ARC
  5
13C
100
AcDbEntity
  8
0
  6
ByLayer
 62
  256
370
   -1
100
AcDbCircle
 10
2176
 20
619.333333333333
 40
30.73181485764296
100
AcDbArc
 50
167.4711922908484
 51
310.6012946450045
  0
LINE
  5
13D
100
AcDbEntity
  8
0
  6
ByLayer
 62
  256
370
   -1
100
AcDbLine
 10
2196
 20
596
 11
2196
 21
756
  0
LINE
  5
13E
100
AcDbEntity
  8
0
  6
ByLayer
 62
  256
370
   -1
100
AcDbLine
 10
2196
 20
756
 11
2186
 21
6446
  0
ARC
  5
13F
100
AcDbEntity
  8
0
  6
ByLayer
 62
  256
370
   -1
100
AcDbCircle
 10
2161
 20
6437.666666666666
 40
26.35231383473648
100
AcDbArc
 50
18.43494882292289
 51
161.5650511770771
  0
LINE
  5
140
100
AcDbEntity
  8
0
  6
ByLayer
 62
  256
370
   -1
100
AcDbLine
 10
2136
 20
6446
 11
2136
 21
6396
  0
LINE
  5
141
100
AcDbEntity
  8
0
  6
ByLayer
 62
  256
370
   -1
100
AcDbLine
 10
1036
 20
5676
 11
3876
 21
5676
  0
LINE
  5
142
100
AcDbEntity
  8
0
  6
ByLayer
 62
  256
370
   -1
100
AcDbLine
 10
1036
 20
5676
 11
1006
 21
5696
  0
LINE
  5
143
100
AcDbEntity
  8
0
  6
ByLayer
 62
  256
370
   -1
100
AcDbLine
 10
1036
 20
5746
 11
3556
 21
5746
  0
LINE
  5
144
100
AcDbEntity
  8
0
  6
ByLayer
 62
  256
370
   -1
100
AcDbLine
 10
3556
 20
5746
 11
3586
 21
5786
  0
LINE
  5
145
100
AcDbEntity
  8
0
  6
ByLayer
 62
  256
370
   -1
100
AcDbLine
 10
3586
 20
5786
 11
4006
 21
5786
  0
LINE
  5
146
100
AcDbEntity
  8
0
  6
ByLayer
 62
  256
370
   -1
100
AcDbLine
 10
4006
 20
5786
 11
4036
 21
5746
  0
LINE
  5
147
100
AcDbEntity
  8
0
  6
ByLayer
 62
  256
370
   -1
100
AcDbLine
 10
3516
 20
5806
 11
3516
 21
5836
  0
LINE
  5
148
100
AcDbEntity
  8
0
  6
ByLayer
 62
  256
370
   -1
100
AcDbLine
 10
3516
 20
5836
 11
4066
 21
5836
  0
LINE
  5
149
100
AcDbEntity
  8
0
  6
ByLayer
 62
  256
370
   -1
100
AcDbLine
 10
4066
 20
5806
 11
4066
 21
5836
  0
LINE
  5
14A
100
AcDbEntity
  8
0
  6
ByLayer
 62
  256
370
   -1
100
AcDbLine
 10
1036
 20
4316
 11
7796
 21
4316
  0
LINE
  5
14B
100
AcDbEntity
  8
0
  6
ByLayer
 62
  256
370
   -1
100
AcDbLine
 10
1036
 20
4316
 11
1006
 21
4346
  0
LINE
  5
14C
100
AcDbEntity
  8
0
  6
ByLayer
 62
  256
370
   -1
100
AcDbLine
 10
1036
 20
4376
 11
1976
 21
4376
  0
LINE
  5
14D
100
AcDbEntity
  8
0
  6
ByLayer
 62
  256
370
   -1
100
AcDbLine
 10
1976
 20
4376
 11
3576
 21
4376
  0
LINE
  5
14E
100
AcDbEntity
  8
0
  6
ByLayer
 62
  256
370
   -1
100
AcDbLine
 10
3576
 20
4376
 11
3596
 21
4406
  0
LINE
  5
14F
100
AcDbEntity
  8
0
  6
ByLayer
 62
  256
370
   -1
100
AcDbLine
 10
3596
 20
4406
 11
3986
 21
4406
  0
LINE
  5
150
100
AcDbEntity
  8
0
  6
ByLayer
 62
  256
370
   -1
100
AcDbLine
 10
3986
 20
4406
 11
4006
 21
4376
  0
LINE
  5
151
100
AcDbEntity
  8
0
  6
ByLayer
 62
  256
370
   -1
100
AcDbLine
 10
3546
 20
4406
 11
3546
 21
4436
  0
LINE
  5
152
100
AcDbEntity
  8
0
  6
ByLayer
 62
  256
370
   -1
100
AcDbLine
 10
3546
 20
4436
 11
4026
 21
4436
  0
LINE
  5
153
100
AcDbEntity
  8
0
  6
ByLayer
 62
  256
370
   -1
100
AcDbLine
 10
4026
 20
4436
 11
4026
 21
4406
  0
ARC
  5
154
100
AcDbEntity
  8
0
  6
ByLayer
 62
  256
370
   -1
100
AcDbCircle
 10
1031
 20
4401
 40
25.49509756796393
100
AcDbArc
 50
78.69006752597979
 51
281.3099324740202
  0
LINE
  5
155
100
AcDbEntity
  8
0
  6
ByLayer
 62
  256
370
   -1
100
AcDbLine
 10
1036
 20
4426
 11
1146
 21
4426
  0
LINE
  5
156
100
AcDbEntity
  8
0
  6
ByLayer
 62
  256
370
   -1
100
AcDbLine
 10
5456
 20
4416
 11
5456
 21
4446
  0
LINE
  5
157
100
AcDbEntity
  8
0
  6
ByLayer
 62
  256
370
   -1
100
AcDbLine
 10
5456
 20
4446
 11
6036
 21
4446
  0
LINE
  5
158
100
AcDbEntity
  8
0
  6
ByLayer
 62
  256
370
   -1
100
AcDbLine
 10
6036
 20
4446
 11
6036
 21
4416
  0
LINE
  5
159
100
AcDbEntity
  8
0
  6
ByLayer
 62
  256
370
   -1
100
AcDbLine
 10
5196
 20
6466
 11
5246
 21
6406
  0
LINE
  5
15A
100
AcDbEntity
  8
0
  6
ByLayer
 62
  256
370
   -1
100
AcDbLine
 10
5246
 20
6406
 11
5246
 21
2436
  0
LINE
  5
15B
100
AcDbEntity
  8
0
  6
ByLayer
 62
  256
370
   -1
100
AcDbLine
 10
5246
 20
2436
 11
5226
 21
2406
  0
LINE
  5
15C
100
AcDbEntity
  8
0
  6
ByLayer
 62
  256
370
   -1
100
AcDbLine
 10
5206
 20
6406
 11
5206
 21
2436
  0
LINE
  5
15D
100
AcDbEntity
  8
0
  6
ByLayer
 62
  256
370
   -1
100
AcDbLine
 10
5206
 20
6406
 11
5206
 21
6436
  0
ARC
  5
15E
100
AcDbEntity
  8
0
  6
ByLayer
 62
  256
370
   -1
100
AcDbCircle
 10
5176
 20
6436
 40
30
100
AcDbArc
 50
0
 51
180
  0
LINE
  5
15F
100
AcDbEntity
  8
0
  6
ByLayer
 62
  256
370
   -1
100
AcDbLine
 10
5146.000000000509
 20
6436
 11
5146
 21
6386
  0
LINE
  5
160
100
AcDbEntity
  8
0
  6
ByLayer
 62
  256
370
   -1
100
AcDbLine
 10
5146
 20
6386
 11
5146
 21
6356
  0
ARC
  5
161
100
AcDbEntity
  8
0
  6
ByLayer
 62
  256
370
   -1
100
AcDbCircle
 10
5186
 20
2427.666666666667
 40
21.66666666666667
100
AcDbArc
 50
157.3801350519593
 51
22.61986494804066
  0
LINE
  5
162
100
AcDbEntity
  8
0
  6
ByLayer
 62
  256
370
   -1
100
AcDbLine
 10
5166
 20
2436
 11
5166
 21
2506
  0
LINE
  5
163
100
AcDbEntity
  8
0
  6
ByLayer
 62
  256
370
   -1
100
AcDbLine
 10
7286
 20
6436
 11
7276
 21
-614
  0
LINE
  5
164
100
AcDbEntity
  8
0
  6
ByLayer
 62
  256
370
   -1
100
AcDbLine
 10
7276
 20
-614
 11
7256
 21
-624
  0
ARC
  5
165
100
AcDbEntity
  8
0
  6
ByLayer
 62
  256
370
   -1
100
AcDbCircle
 10
7211
 20
-589
 40
25.49509756796393
100
AcDbArc
 50
168.6900675259798
 51
348.6900675259798
  0
LINE
  5
166
100
AcDbEntity
  8
0
  6
ByLayer
 62
  256
370
   -1
100
AcDbLine
 10
7186
 20
-584
 11
7186
 21
-504
  0
LINE
  5
167
100
AcDbEntity
  8
0
  6
ByLayer
 62
  256
370
   -1
100
AcDbLine
 10
7286
 20
6436
 11
7256
 21
6466
  0
ARC
  5
168
100
AcDbEntity
  8
0
  6
ByLayer
 62
  256
370
   -1
100
AcDbCircle
 10
7226
 20
6446
 40
20
100
AcDbArc
 50
0
 51
180
  0
LINE
  5
169
100
AcDbEntity
  8
0
  6
ByLayer
 62
  256
370
   -1
100
AcDbLine
 10
7206
 20
6446
 11
7206
 21
6356
  0
LINE
  5
16A
100
AcDbEntity
  8
0
  6
ByLayer
 62
  256
370
   -1
100
AcDbLine
 10
5176
 20
5276
 11
5156
 21
5256
  0
LINE
  5
16B
100
AcDbEntity
  8
0
  6
ByLayer
 62
  256
370
   -1
100
AcDbLine
 10
5156
 20
5256
 11
5156
 21
4846
  0
LINE
  5
16C
100
AcDbEntity
  8
0
  6
ByLayer
 62
  256
370
   -1
100
AcDbLine
 10
5156
 20
4846
 11
5156
 21
4816
  0
LINE
  5
16D
100
AcDbEntity
  8
0
  6
ByLayer
 62
  256
370
   -1
100
AcDbLine
 10
5156
 20
4816
 11
5176
 21
4796
  0
LINE
  5
16E
100
AcDbEntity
  8
0
  6
ByLayer
 62
  256
370
   -1
100
AcDbLine
 10
1036
 20
1906
 11
4756
 21
1906
  0
LINE
  5
16F
100
AcDbEntity
  8
0
  6
ByLayer
 62
  256
370
   -1
100
AcDbLine
 10
1036
 20
1906
 11
976
 21
1976
  0
LINE
  5
170
100
AcDbEntity
  8
0
  6
ByLayer
 62
  256
370
   -1
100
AcDbLine
 10
1036
 20
1976
 11
2076
 21
1976
  0
LINE
  5
171
100
AcDbEntity
  8
0
  6
ByLayer
 62
  256
370
   -1
100
AcDbLine
 10
1036
 20
1976
 11
1006
 21
1976
  0
ARC
  5
172
100
AcDbEntity
  8
0
  6
ByLayer
 62
  256
370
   -1
100
AcDbCircle
 10
1006
 20
2006
 40
30
100
AcDbArc
 50
90
 51
270
  0
LINE
  5
173
100
AcDbEntity
  8
0
  6
ByLayer
 62
  256
370
   -1
100
AcDbLine
 10
1006
 20
2036
 11
1106
 21
2036
  0
ARC
  5
174
100
AcDbEntity
  8
0
  6
ByLayer
 62
  256
370
   -1
100
AcDbCircle
 10
4761
 20
1931
 40
25.49509756796393
100
AcDbArc
 50
258.6900675259798
 51
101.3099324740202
  0
LINE
  5
175
100
AcDbEntity
  8
0
  6
ByLayer
 62
  256
370
   -1
100
AcDbLine
 10
4756
 20
1956.000000000031
 11
4666
 21
1956
  0
LINE
  5
176
100
AcDbEntity
  8
0
  6
ByLayer
 62
  256
370
   -1
100
AcDbLine
 10
2826
 20
1876
 11
2856
 21
1856
  0
LINE
  5
177
100
AcDbEntity
  8
0
  6
ByLayer
 62
  256
370
   -1
100
AcDbLine
 10
2856
 20
1856
 11
4756
 21
1856
  0
LINE
  5
178
100
AcDbEntity
  8
0
  6
ByLayer
 62
  256
370
   -1
100
AcDbLine
 10
4756
 20
1856
 11
4786
 21
1886
  0
LINE
  5
179
100
AcDbEntity
  8
0
  6
ByLayer
 62
  256
370
   -1
100
AcDbLine
 10
4076
 20
2376
 11
4076
 21
176
  0
LINE
  5
17A
100
AcDbEntity
  8
0
  6
ByLayer
 62
  256
370
   -1
100
AcDbLine
 10
4076
 20
2376
 11
4076
 21
2426
  0
ARC
  5
17B
100
AcDbEntity
  8
0
  6
ByLayer
 62
  256
370
   -1
100
AcDbCircle
 10
4046
 20
2432.666666666667
 40
30.73181485764296
100
AcDbArc
 50
347.4711922908486
 51
192.5288077091513
  0
LINE
  5
17C
100
AcDbEntity
  8
0
  6
ByLayer
 62
  256
370
   -1
100
AcDbLine
 10
4016
 20
2426
 11
4016
 21
2216
  0
ARC
  5
17D
100
AcDbEntity
  8
0
  6
ByLayer
 62
  256
370
   -1
100
AcDbCircle
 10
4036
 20
181
 40
40.31128874149275
100
AcDbArc
 50
172.8749836510982
 51
352.8749836510981
  0
LINE
  5
17E
100
AcDbEntity
  8
0
  6
ByLayer
 62
  256
370
   -1
100
AcDbLine
 10
3996
 20
186
 11
3996
 21
286
  0
LINE
  5
17F
100
AcDbEntity
  8
0
  6
ByLayer
 62
  256
370
   -1
100
AcDbLine
 10
7236
 20
-594
 11
7236
 21
2196
  0
LINE
  5
180
100
AcDbEntity
  8
0
  6
ByLayer
 62
  256
370
   -1
100
AcDbLine
 10
7236
 20
2196
 11
7216
 21
2226
  0
LINE
  5
181
100
AcDbEntity
  8
0
  6
ByLayer
 62
  256
370
   -1
100
AcDbLine
 10
7216
 20
2226
 11
7216
 21
2566
  0
LINE
  5
182
100
AcDbEntity
  8
0
  6
ByLayer
 62
  256
370
   -1
100
AcDbLine
 10
7216
 20
2566
 11
7236
 21
2596
  0
LINE
  5
183
100
AcDbEntity
  8
0
  6
ByLayer
 62
  256
370
   -1
100
AcDbLine
 10
7236
 20
2596
 11
7246
 21
6446
  0
LINE
  5
184
100
AcDbEntity
  8
0
  6
ByLayer
 62
  256
370
   -1
100
AcDbLine
 10
7176
 20
2676
 11
7156
 21
2676
  0
LINE
  5
185
100
AcDbEntity
  8
0
  6
ByLayer
 62
  256
370
   -1
100
AcDbLine
 10
7156
 20
2676
 11
7156
 21
2156
  0
LINE
  5
186
100
AcDbEntity
  8
0
  6
ByLayer
 62
  256
370
   -1
100
AcDbLine
 10
7156
 20
2156
 11
7176
 21
2156
  0
ARC
  5
187
100
AcDbEntity
  8
0
  6
ByLayer
 62
  256
370
   -1
100
AcDbCircle
 10
7804.75
 20
4346
 40
31.25
100
AcDbArc
 50
253.739795291688
 51
106.2602047083119
  0
LINE
  5
188
100
AcDbEntity
  8
0
  6
ByLayer
 62
  256
370
   -1
100
AcDbLine
 10
7796
 20
4375.999999999826
 11
7726
 21
4376
  0
LINE
  5
189
100
AcDbEntity
  8
0
  6
ByLayer
 62
  256
370
   -1
100
AcDbLine
 10
3716
 20
4286
 11
3736
 21
4256
  0
LINE
  5
18A
100
AcDbEntity
  8
0
  6
ByLayer
 62
  256
370
   -1
100
AcDbLine
 10
3736
 20
4256
 11
7796
 21
4271.07
  0
LINE
  5
18B
100
AcDbEntity
  8
0
  6
ByLayer
 62
  256
370
   -1
100
AcDbLine
 10
7796
 20
4271.07
 11
7836
 21
4296
  0
LINE
  5
18C
100
AcDbEntity
  8
0
  6
ByLayer
 62
  256
370
   -1
100
AcDbLine
 10
2076
 20
1976
 11
2676
 21
1976
  0
LINE
  5
18D
100
AcDbEntity
  8
0
  6
ByLayer
 62
  256
370
   -1
100
AcDbLine
 10
2676
 20
1976
 11
2696
 21
1996
  0
LINE
  5
18E
100
AcDbEntity
  8
0
  6
ByLayer
 62
  256
370
   -1
100
AcDbLine
 10
2696
 20
1996
 11
2986
 21
1996
  0
LINE
  5
18F
100
AcDbEntity
  8
0
  6
ByLayer
 62
  256
370
   -1
100
AcDbLine
 10
2986
 20
1996
 11
3006
 21
1976
  0
LINE
  5
190
100
AcDbEntity
  8
0
  6
ByLayer
 62
  256
370
   -1
100
AcDbLine
 10
2646
 20
2016
 11
2646
 21
2046
  0
LINE
  5
191
100
AcDbEntity
  8
0
  6
ByLayer
 62
  256
370
   -1
100
AcDbLine
 10
2646
 20
2046
 11
3036
 21
2046
  0
LINE
  5
192
100
AcDbEntity
  8
0
  6
ByLayer
 62
  256
370
   -1
100
AcDbLine
 10
3036
 20
2046
 11
3036
 21
2016
  0
LINE
  5
193
100
AcDbEntity
  8
0
  6
ByLayer
 62
  256
370
   -1
100
AcDbLine
 10
3711
 20
5836
 11
3876
 21
5976
  0
LINE
  5
194
100
AcDbEntity
  8
0
  6
ByLayer
 62
  256
370
   -1
100
AcDbLine
 10
3876
 20
5976
 11
3276
 21
5976
  0
MTEXT
  5
195
100
AcDbEntity
  8
0
  6
ByLayer
 62
  256
370
   -1
100
AcDbMText
 10
3076
 20
6076
 30
0
 40
80
 41
586.666666666679
 71
    1
 72
    1
  1
12%%C@10"c/c
  7
standard
210
0
220
0
230
1
 50
0
 73
    2
 44
1
  0
LINE
  5
196
100
AcDbEntity
  8
0
  6
ByLayer
 62
  256
370
   -1
100
AcDbLine
 10
2736
 20
5746
 11
2676
 21
5876
  0
LINE
  5
197
100
AcDbEntity
  8
0
  6
ByLayer
 62
  256
370
   -1
100
AcDbLine
 10
2676
 20
5876
 11
1776
 21
5876
  0
LINE
  5
198
100
AcDbEntity
  8
0
  6
ByLayer
 62
  256
370
   -1
100
AcDbLine
 10
2576
 20
5676
 11
2376
 21
5476
  0
LINE
  5
199
100
AcDbEntity
  8
0
  6
ByLayer
 62
  256
370
   -1
100
AcDbLine
 10
2376
 20
5476
 11
1676
 21
5476
  0
LINE
  5
19A
100
AcDbEntity
  8
0
  6
ByLayer
 62
  256
370
   -1
100
AcDbLine
 10
5866
 20
4446
 11
5896
 21
4476
  0
LINE
  5
19B
100
AcDbEntity
  8
0
  6
ByLayer
 62
  256
370
   -1
100
AcDbLine
 10
5896
 20
4476
 11
6176
 21
4476
  0
LINE
  5
19C
100
AcDbEntity
  8
0
  6
ByLayer
 62
  256
370
   -1
100
AcDbLine
 10
4916
 20
4316
 11
4886
 21
4356
  0
LINE
  5
19D
100
AcDbEntity
  8
0
  6
ByLayer
 62
  256
370
   -1
100
AcDbLine
 10
4886
 20
4356
 11
4546
 21
4356
  0
LINE
  5
19E
100
AcDbEntity
  8
0
  6
ByLayer
 62
  256
370
   -1
100
AcDbLine
 10
4915
 20
4261
 11
4886
 21
4226
  0
LINE
  5
19F
100
AcDbEntity
  8
0
  6
ByLayer
 62
  256
370
   -1
100
AcDbLine
 10
4886
 20
4226
 11
4506
 21
4226
  0
LINE
  5
1A0
100
AcDbEntity
  8
0
  6
ByLayer
 62
  256
370
   -1
100
AcDbLine
 10
3656
 20
4436
 11
3706
 21
4496
  0
LINE
  5
1A1
100
AcDbEntity
  8
0
  6
ByLayer
 62
  256
370
   -1
100
AcDbLine
 10
3706
 20
4496
 11
3446
 21
4496
  0
LINE
  5
1A2
100
AcDbEntity
  8
0
  6
ByLayer
 62
  256
370
   -1
100
AcDbLine
 10
3346
 20
4376
 11
3306
 21
4416
  0
LINE
  5
1A3
100
AcDbEntity
  8
0
  6
ByLayer
 62
  256
370
   -1
100
AcDbLine
 10
3306
 20
4416
 11
3056
 21
4416
  0
LINE
  5
1A4
100
AcDbEntity
  8
0
  6
ByLayer
 62
  256
370
   -1
100
AcDbLine
 10
2126
 20
2056
 11
2086
 21
2056
  0
LINE
  5
1A5
100
AcDbEntity
  8
0
  6
ByLayer
 62
  256
370
   -1
100
AcDbLine
 10
2086
 20
2056
 11
2086
 21
2546
  0
LINE
  5
1A6
100
AcDbEntity
  8
0
  6
ByLayer
 62
  256
370
   -1
100
AcDbLine
 10
2086
 20
2546
 11
2136
 21
2546
  0
LINE
  5
1A7
100
AcDbEntity
  8
0
  6
ByLayer
 62
  256
370
   -1
100
AcDbLine
 10
2086
 20
2426
 11
1866
 21
2426
  0
LINE
  5
1A8
100
AcDbEntity
  8
0
  6
ByLayer
 62
  256
370
   -1
100
AcDbLine
 10
1676
 20
1976
 11
1556
 21
1836
  0
LINE
  5
1A9
100
AcDbEntity
  8
0
  6
ByLayer
 62
  256
370
   -1
100
AcDbLine
 10
1556
 20
1836
 11
1176
 21
1836
  0
LINE
  5
1AA
100
AcDbEntity
  8
0
  6
ByLayer
 62
  256
370
   -1
100
AcDbLine
 10
1556
 20
1836
 11
1726
 21
1906
  0
LINE
  5
1AB
100
AcDbEntity
  8
0
  6
ByLayer
 62
  256
370
   -1
100
AcDbLine
 10
1256
 20
4316
 11
1256
 21
4256
  0
LINE
  5
1AC
100
AcDbEntity
  8
0
  6
ByLayer
 62
  256
370
   -1
100
AcDbLine
 10
1256
 20
4256
 11
1586
 21
4256
  0
LINE
  5
1AD
100
AcDbEntity
  8
0
  6
ByLayer
 62
  256
370
   -1
100
AcDbLine
 10
7156
 20
2546
 11
6926
 21
2546
  0
LINE
  5
1AE
100
AcDbEntity
  8
0
  6
ByLayer
 62
  256
370
   -1
100
AcDbLine
 10
7276
 20
1276
 11
7676
 21
1276
  0
LINE
  5
1AF
100
AcDbEntity
  8
0
  6
ByLayer
 62
  256
370
   -1
100
AcDbLine
 10
7236
 20
1276
 11
6866
 21
1276
  0
MTEXT
  5
1B0
100
AcDbEntity
  8
0
  6
ByLayer
 62
  256
370
   -1
100
AcDbMText
 10
6789.333333333334
 20
1356
 30
0
 40
80
 41
302.222222222226
 71
    1
 72
    1
  1
10%%C@\P12"c/c
  7
standard
210
0
220
0
230
1
 50
0
 73
    2
 44
1
  0
MTEXT
  5
1B1
100
AcDbEntity
  8
0
  6
ByLayer
 62
  256
370
   -1
100
AcDbMText
 10
7376
 20
1376
 30
0
 40
80
 41
302.222222222226
 71
    1
 72
    1
  1
8%%C@\P12"c/c
  7
standard
210
0
220
0
230
1
 50
0
 73
    2
 44
1
  0
MTEXT
  5
1B2
100
AcDbEntity
  8
0
  6
ByLayer
 62
  256
370
   -1
100
AcDbMText
 10
6776
 20
2776
 30
0
 40
80
 41
302.222222222226
 71
    1
 72
    1
  1
12%%C@\P12"c/c
  7
standard
210
0
220
0
230
1
 50
0
 73
    2
 44
1
  0
MTEXT
  5
1B3
100
AcDbEntity
  8
0
  6
ByLayer
 62
  256
370
   -1
100
AcDbMText
 10
6076
 20
4576
 30
0
 40
80
 41
257.7777777777865
 71
    1
 72
    1
  1
12%%C@\P6"c/c
  7
standard
210
0
220
0
230
1
 50
0
 73
    2
 44
1
  0
MTEXT
  5
1B4
100
AcDbEntity
  8
0
  6
ByLayer
 62
  256
370
   -1
100
AcDbMText
 10
4376
 20
4476
 30
0
 40
80
 41
586.666666666679
 71
    1
 72
    1
  1
12%%C@12"c/c
  7
standard
210
0
220
0
230
1
 50
0
 73
    2
 44
1
  0
MTEXT
  5
1B5
100
AcDbEntity
  8
0
  6
ByLayer
 62
  256
370
   -1
100
AcDbMText
 10
4376
 20
4176
 30
0
 40
80
 41
542.2222222222346
 71
    1
 72
    1
  1
8%%C@12"c/c
  7
standard
210
0
220
0
230
1
 50
0
 73
    2
 44
1
  0
MTEXT
  5
1B6
100
AcDbEntity
  8
0
  6
ByLayer
 62
  256
370
   -1
100
AcDbMText
 10
3376
 20
4756
 30
0
 40
80
 41
302.222222222226
 71
    1
 72
    1
  1
12%%C@\P10"c/c
  7
standard
210
0
220
0
230
1
 50
0
 73
    2
 44
1
  0
MTEXT
  5
1B7
100
AcDbEntity
  8
0
  6
ByLayer
 62
  256
370
   -1
100
AcDbMText
 10
2696
 20
4516
 30
0
 40
80
 41
586.666666666679
 71
    1
 72
    1
  1
10%%C@10"c/c
  7
standard
210
0
220
0
230
1
 50
0
 73
    2
 44
1
  0
MTEXT
  5
1B8
100
AcDbEntity
  8
0
  6
ByLayer
 62
  256
370
   -1
100
AcDbMText
 10
1246
 20
4236
 30
0
 40
80
 41
586.666666666679
 71
    1
 72
    1
  1
12%%C@12"c/c
  7
standard
210
0
220
0
230
1
 50
0
 73
    2
 44
1
  0
MTEXT
  5
1B9
100
AcDbEntity
  8
0
  6
ByLayer
 62
  256
370
   -1
100
AcDbMText
 10
1776
 20
5956
 30
0
 40
80
 41
586.666666666679
 71
    1
 72
    1
  1
10%%C@10"c/c
  7
standard
210
0
220
0
230
1
 50
0
 73
    2
 44
1
  0
MTEXT
  5
1BA
100
AcDbEntity
  8
0
  6
ByLayer
 62
  256
370
   -1
100
AcDbMText
 10
1676
 20
5556
 30
0
 40
80
 41
586.666666666679
 71
    1
 72
    1
  1
12%%C@12"c/c
  7
standard
210
0
220
0
230
1
 50
0
 73
    2
 44
1
  0
MTEXT
  5
1BB
100
AcDbEntity
  8
0
  6
ByLayer
 62
  256
370
   -1
100
AcDbMText
 10
1476
 20
2516
 30
0
 40
80
 41
586.666666666679
 71
    1
 72
    1
  1
12%%C@10"c/c
  7
standard
210
0
220
0
230
1
 50
0
 73
    2
 44
1
  0
MTEXT
  5
1BC
100
AcDbEntity
  8
0
  6
ByLayer
 62
  256
370
   -1
100
AcDbMText
 10
1126
 20
1826
 30
0
 40
80
 41
542.2222222222396
 71
    1
 72
    1
  1
10%%C@6"c/c
  7
standard
210
0
220
0
230
1
 50
0
 73
    2
 44
1
  0
LINE
  5
1BD
100
AcDbEntity
  8
0
  6
ByLayer
 62
  256
370
   -1
100
AcDbLine
 10
4076
 20
1076
 11
3276
 21
1076
  0
MTEXT
  5
1BE
100
AcDbEntity
  8
0
  6
ByLayer
 62
  256
370
   -1
100
AcDbMText
 10
3276
 20
1176
 30
0
 40
80
 41
542.2222222222396
 71
    1
 72
    1
  1
12%%C@6"c/c
  7
standard
210
0
220
0
230
1
 50
0
 73
    2
 44
1
  0
LINE
  5
1BF
100
AcDbEntity
  8
0
  6
ByLayer
 62
  256
370
   -1
100
AcDbLine
 10
4336
 20
1856
 11
4316
 21
1816
  0
LINE
  5
1C0
100
AcDbEntity
  8
0
  6
ByLayer
 62
  256
370
   -1
100
AcDbLine
 10
4316
 20
1816
 11
3936
 21
1816
  0
MTEXT
  5
1C1
100
AcDbEntity
  8
0
  6
ByLayer
 62
  256
370
   -1
100
AcDbMText
 10
3886
 20
1796
 30
0
 40
80
 41
542.2222222222346
 71
    1
 72
    1
  1
8%%C@12"c/c
  7
standard
210
0
220
0
230
1
 50
0
 73
    2
 44
1
  0
LINE
  5
1C2
100
AcDbEntity
  8
0
  6
ByLayer
 62
  256
370
   -1
100
AcDbLine
 10
3996
 20
1906
 11
3966
 21
1976
  0
LINE
  5
1C3
100
AcDbEntity
  8
0
  6
ByLayer
 62
  256
370
   -1
100
AcDbLine
 10
3966
 20
1976
 11
3576
 21
1976
  0
MTEXT
  5
1C4
100
AcDbEntity
  8
0
  6
ByLayer
 62
  256
370
   -1
100
AcDbMText
 10
3476
 20
2076
 30
0
 40
80
 41
586.666666666679
 71
    1
 72
    1
  1
10%%C@12"c/c
  7
standard
210
0
220
0
230
1
 50
0
 73
    2
 44
1
  0
LINE
  5
1C5
100
AcDbEntity
  8
0
  6
ByLayer
 62
  256
370
   -1
100
AcDbLine
 10
2686
 20
2046
 11
2656
 21
2086
  0
LINE
  5
1C6
100
AcDbEntity
  8
0
  6
ByLayer
 62
  256
370
   -1
100
AcDbLine
 10
2656
 20
2086
 11
3096
 21
2086
  0
MTEXT
  5
1C7
100
AcDbEntity
  8
0
  6
ByLayer
 62
  256
370
   -1
100
AcDbMText
 10
2596
 20
2186
 30
0
 40
80
 41
586.666666666679
 71
    1
 72
    1
  1
10%%C@10"c/c
  7
standard
210
0
220
0
230
1
 50
0
 73
    2
 44
1
  0
LINE
  5
1C8
100
AcDbEntity
  8
0
  6
ByLayer
 62
  256
370
   -1
100
AcDbLine
 10
5156
 20
5156
 11
4766
 21
5156
  0
MTEXT
  5
1C9
100
AcDbEntity
  8
0
  6
ByLayer
 62
  256
370
   -1
100
AcDbMText
 10
4576
 20
5276
 30
0
 40
80
 41
542.2222222222396
 71
    1
 72
    1
  1
12%%C@5"c/c
  7
standard
210
0
220
0
230
1
 50
0
 73
    2
 44
1
  0
LINE
  5
1CA
100
AcDbEntity
  8
0
  6
ByLayer
 62
  256
370
   -1
100
AcDbLine
 10
5206
 20
6136
 11
5366
 21
6026
  0
LINE
  5
1CB
100
AcDbEntity
  8
0
  6
ByLayer
 62
  256
370
   -1
100
AcDbLine
 10
5366
 20
6026
 11
5246
 21
6006
  0
LINE
  5
1CC
100
AcDbEntity
  8
0
  6
ByLayer
 62
  256
370
   -1
100
AcDbLine
 10
5366
 20
6026
 11
5706
 21
6026
  0
MTEXT
  5
1CD
100
AcDbEntity
  8
0
  6
ByLayer
 62
  256
370
   -1
100
AcDbMText
 10
5376
 20
6126
 30
0
 40
80
 41
462.2222222222396
 71
    1
 72
    1
  1
10@6"c/c
  7
standard
210
0
220
0
230
1
 50
0
 73
    2
 44
1
  0
LINE
  5
1CE
100
AcDbEntity
  8
0
  6
ByLayer
 62
  256
370
   -1
100
AcDbLine
 10
3716
 20
5626
 11
3746
 21
5596
  0
LINE
  5
1CF
100
AcDbEntity
  8
0
  6
ByLayer
 62
  256
370
   -1
100
AcDbLine
 10
3746
 20
5596
 11
7826
 21
5596
  0
LINE
  5
1D0
100
AcDbEntity
  8
0
  6
ByLayer
 62
  256
370
   -1
100
AcDbLine
 10
7826
 20
5596
 11
7856
 21
5626
  0
LINE
  5
1D1
100
AcDbEntity
  8
0
  6
ByLayer
 62
  256
370
   -1
100
AcDbLine
 10
5986
 20
5596
 11
5946
 21
5636
  0
LINE
  5
1D2
100
AcDbEntity
  8
0
  6
ByLayer
 62
  256
370
   -1
100
AcDbLine
 10
5946
 20
5636
 11
5506
 21
5636
  0
MTEXT
  5
1D3
100
AcDbEntity
  8
0
  6
ByLayer
 62
  256
370
   -1
100
AcDbMText
 10
5486
 20
5726
 30
0
 40
80
 41
417.7777777777952
 71
    1
 72
    1
  1
8@6"c/c
  7
standard
210
0
220
0
230
1
 50
0
 73
    2
 44
1
  0
LINE
  5
1D4
100
AcDbEntity
  8
0
  6
ByLayer
 62
  256
370
   -1
100
AcDbLine
 10
5206
 20
3566
 11
5376
 21
3486
  0
LINE
  5
1D5
100
AcDbEntity
  8
0
  6
ByLayer
 62
  256
370
   -1
100
AcDbLine
 10
5376
 20
3486
 11
5246
 21
3446
  0
LINE
  5
1D6
100
AcDbEntity
  8
0
  6
ByLayer
 62
  256
370
   -1
100
AcDbLine
 10
5376
 20
3486
 11
5666
 21
3486
  0
MTEXT
  5
1D7
100
AcDbEntity
  8
0
  6
ByLayer
 62
  256
370
   -1
100
AcDbMText
 10
5386
 20
3606
 30
0
 40
80
 41
257.7777777777865
 71
    1
 72
    1
  1
10@\P6"c/c
  7
standard
210
0
220
0
230
1
 50
0
 73
    2
 44
1
  0
LINE
  5
1D8
100
AcDbEntity
  8
0
  6
ByLayer
 62
  256
370
   -1
100
AcDbLine
 10
6666
 20
386
 11
7836
 21
386
  0
ARC
  5
1D9
100
AcDbEntity
  8
0
  6
ByLayer
 62
  256
370
   -1
100
AcDbCircle
 10
7836
 20
406
 40
20
100
AcDbArc
 50
270
 51
90
  0
LINE
  5
1DA
100
AcDbEntity
  8
0
  6
ByLayer
 62
  256
370
   -1
100
AcDbLine
 10
7836
 20
426
 11
7746
 21
426
  0
ARC
  5
1DB
100
AcDbEntity
  8
0
  6
ByLayer
 62
  256
370
   -1
100
AcDbCircle
 10
6661
 20
411
 40
25.49509756796393
100
AcDbArc
 50
78.69006752597979
 51
281.3099324740202
  0
LINE
  5
1DC
100
AcDbEntity
  8
0
  6
ByLayer
 62
  256
370
   -1
100
AcDbLine
 10
6666
 20
436
 11
6756
 21
436
  0
LINE
  5
1DD
100
AcDbEntity
  8
0
  6
ByLayer
 62
  256
370
   -1
100
AcDbLine
 10
7316
 20
386
 11
7316
 21
326
  0
LINE
  5
1DE
100
AcDbEntity
  8
0
  6
ByLayer
 62
  256
370
   -1
100
AcDbLine
 10
7316
 20
326
 11
7616
 21
326
  0
MTEXT
  5
1DF
100
AcDbEntity
  8
0
  6
ByLayer
 62
  256
370
   -1
100
AcDbMText
 10
7306
 20
306
 30
0
 40
80
 41
462.2222222222396
 71
    1
 72
    1
  1
10@5"c/c
  7
standard
210
0
220
0
230
1
 50
0
 73
    2
 44
1
  0
LINE
  5
1E0
100
AcDbEntity
  8
0
  6
ByLayer
 62
  256
370
   -1
100
AcDbLine
 10
2196
 20
1146
 11
1786
 21
1146
  0
MTEXT
  5
1E1
100
AcDbEntity
  8
0
  6
ByLayer
 62
  256
370
   -1
100
AcDbMText
 10
1696
 20
1256
 30
0
 40
80
 41
462.2222222222396
 71
    1
 72
    1
  1
10@6"c/c
  7
standard
210
0
220
0
230
1
 50
0
 73
    2
 44
1
  0
LINE
  5
1E2
100
AcDbEntity
  8
0
  6
ByLayer
 62
  256
370
   -1
100
AcDbLine
 10
7246
 20
6266
 11
7366
 21
6206
  0
LINE
  5
1E3
100
AcDbEntity
  8
0
  6
ByLayer
 62
  256
370
   -1
100
AcDbLine
 10
7366
 20
6206
 11
7286
 21
6166
  0
LINE
  5
1E4
100
AcDbEntity
  8
0
  6
ByLayer
 62
  256
370
   -1
100
AcDbLine
 10
7366
 20
6206
 11
7686
 21
6206
  0
MTEXT
  5
1E5
100
AcDbEntity
  8
0
  6
ByLayer
 62
  256
370
   -1
100
AcDbMText
 10
7406
 20
6316
 30
0
 40
80
 41
257.7777777777865
 71
    1
 72
    1
  1
10@\P6"c/c
  7
standard
210
0
220
0
230
1
 50
0
 73
    2
 44
1
  0
ENDSEC
  0
SECTION
  2
OBJECTS
  0
DICTIONARY
  5
C
330
0
100
AcDbDictionary
281
    1
  3
ACAD_GROUP
350
D
  0
DICTIONARY
  5
D
330
C
100
AcDbDictionary
281
    1
  0
PLOTSETTINGS
  5
1E6
100
AcDbPlotSettings
  6
1x1
 40
0
 41
0
 42
0
 43
0
  0
ENDSEC
  0
EOF
